<?xml version="1.0" encoding="UTF-8" standalone="no"?>
<!-- Created with Inkscape (http://www.inkscape.org/) -->

<svg
   width="48"
   height="48"
   viewBox="0 0 12.7 12.7"
   version="1.1"
   id="svg5"
   xml:space="preserve"
   inkscape:version="1.2.2 (732a01da63, 2022-12-09)"
   sodipodi:docname="bici_2.svg"
   xmlns:inkscape="http://www.inkscape.org/namespaces/inkscape"
   xmlns:sodipodi="http://sodipodi.sourceforge.net/DTD/sodipodi-0.dtd"
   xmlns="http://www.w3.org/2000/svg"
   xmlns:svg="http://www.w3.org/2000/svg"><sodipodi:namedview
     id="namedview7"
     pagecolor="#505050"
     bordercolor="#eeeeee"
     borderopacity="1"
     inkscape:showpageshadow="0"
     inkscape:pageopacity="0"
     inkscape:pagecheckerboard="0"
     inkscape:deskcolor="#505050"
     inkscape:document-units="mm"
     showgrid="false"
     inkscape:zoom="8.3553674"
     inkscape:cx="-0.29920887"
     inkscape:cy="27.108323"
     inkscape:window-width="1350"
     inkscape:window-height="1032"
     inkscape:window-x="325"
     inkscape:window-y="285"
     inkscape:window-maximized="0"
     inkscape:current-layer="layer1"><inkscape:grid
       type="xygrid"
       id="grid3937" /></sodipodi:namedview><defs
     id="defs2" /><g
     inkscape:label="Capa 1"
     inkscape:groupmode="layer"
     id="layer1"><rect
       style="fill:#0c47ad;stroke-width:0.28;fill-opacity:1;stroke-dasharray:none"
       id="rect3149"
       width="12.7"
       height="12.7"
       x="-5.5511151e-17"
       y="0"
       inkscape:label="rect359"
       ry="0.83773082" /><path
       d="m 3.1922155,9.8831584 q -0.8943756,0 -1.5182299,-0.6293747 -0.6238544,-0.6293763 -0.6238544,-1.523751 0,-0.8943756 0.6297945,-1.5182299 0.6297838,-0.6238543 1.5233314,-0.6238543 0.7839586,0 1.3746876,0.5023959 0.5907289,0.502396 0.7121874,1.2753129 H 5.8532576 L 4.9478405,4.80399 H 4.1417988 V 4.1414899 H 6.2176323 V 4.80399 H 5.6434661 L 5.9305492,5.5879485 H 8.3817996 L 7.5978411,3.4789897 H 6.4384662 V 2.8164896 H 7.531591 q 0.2650002,0 0.4471878,0.1214583 0.1821874,0.1214584 0.2705208,0.3643751 l 0.839167,2.2856255 h 0.4195832 q 0.8889642,0 1.5155242,0.6209172 0.626559,0.6209172 0.626559,1.5018875 0,0.8915712 -0.621204,1.5319881 -0.621204,0.6404171 -1.5208792,0.6404171 -0.7906058,0 -1.3890529,-0.5300001 Q 7.5205494,8.8231582 7.3880495,8.0281573 H 5.2901321 Q 5.1686736,8.8231582 4.5779447,9.3531583 3.9872157,9.8831584 3.1922155,9.8831584 Z m 0,-0.6625002 q 0.5300002,0 0.9219791,-0.3422916 Q 4.5061735,8.5360744 4.6386735,8.0281573 H 3.3247156 v -0.6625 H 4.6386735 Q 4.5061735,6.8687822 4.1086734,6.5596154 3.7111733,6.2504486 3.2032571,6.2504486 q -0.618334,0 -1.0544798,0.4306251 -0.436146,0.4306251 -0.436146,1.048959 0,0.6210933 0.4306256,1.0558595 0.4306247,0.434766 1.0489586,0.434766 z M 6.559924,7.3656573 H 7.3990911 Q 7.4432605,7.1116988 7.570237,6.8025321 7.6972161,6.4933654 7.9180496,6.2504486 H 6.1624238 Z m 2.9481258,1.8550009 q 0.6183332,0 1.0489582,-0.434766 0.430625,-0.4347662 0.430625,-1.0558595 0,-0.6183339 -0.430625,-1.048959 Q 10.126383,6.2504486 9.5080498,6.2504486 H 9.3313828 L 9.7620075,7.4981573 9.1436743,7.7079488 8.6688827,6.4712821 Q 8.3486746,6.6589904 8.1885703,7.0012822 8.0284662,7.3435739 8.0284662,7.7300327 q 0,0.6210933 0.430625,1.0558595 0.4306254,0.434766 1.0489586,0.434766 z M 3.1811732,7.7300327 Z m 6.3268766,0 z"
       id="path6777"
       style="fill:#ffffff;stroke-width:0.0110417" /><g
       style="fill:#000000"
       id="g8900"
       transform="matrix(0.44166667,0,0,0.44166667,1.6199929,1.1753278)"><g
         id="g8889"><rect
           fill="none"
           height="24"
           width="24"
           id="rect8885"
           x="0"
           y="0" /><path
           d="M 2.81,2.81 1.39,4.22 19.78,22.61 21.19,21.2 Z"
           id="path8887"
           style="fill:#ff0000"
           sodipodi:nodetypes="ccccc" /></g></g></g></svg>
