<?xml version="1.0" encoding="UTF-8" standalone="no"?>
<!-- Created with Inkscape (http://www.inkscape.org/) -->

<svg
   width="48"
   height="48"
   viewBox="0 0 12.7 12.7"
   version="1.1"
   id="svg5"
   xml:space="preserve"
   inkscape:version="1.2.2 (732a01da63, 2022-12-09)"
   sodipodi:docname="bici_0.svg"
   xmlns:inkscape="http://www.inkscape.org/namespaces/inkscape"
   xmlns:sodipodi="http://sodipodi.sourceforge.net/DTD/sodipodi-0.dtd"
   xmlns="http://www.w3.org/2000/svg"
   xmlns:svg="http://www.w3.org/2000/svg"><sodipodi:namedview
     id="namedview7"
     pagecolor="#505050"
     bordercolor="#eeeeee"
     borderopacity="1"
     inkscape:showpageshadow="0"
     inkscape:pageopacity="0"
     inkscape:pagecheckerboard="0"
     inkscape:deskcolor="#505050"
     inkscape:document-units="mm"
     showgrid="false"
     inkscape:zoom="8.3553674"
     inkscape:cx="4.6078165"
     inkscape:cy="29.322469"
     inkscape:window-width="1920"
     inkscape:window-height="1009"
     inkscape:window-x="-8"
     inkscape:window-y="-8"
     inkscape:window-maximized="1"
     inkscape:current-layer="layer1"><inkscape:grid
       type="xygrid"
       id="grid3937" /></sodipodi:namedview><defs
     id="defs2" /><g
     inkscape:label="Capa 1"
     inkscape:groupmode="layer"
     id="layer1"><rect
       style="fill:#71716f;stroke-width:0.28;fill-opacity:1;stroke-dasharray:none"
       id="rect3149"
       width="12.7"
       height="12.7"
       x="-5.5511151e-17"
       y="0"
       inkscape:label="rect359"
       ry="0.83773082" /><path
       d="m 3.192082,9.8831552 q -0.894375,0 -1.518229,-0.6293743 -0.623854,-0.6293752 -0.623854,-1.5237498 0,-0.894375 0.629794,-1.5182292 0.629784,-0.6238541 1.523331,-0.6238541 0.783958,0 1.374688,0.5023958 0.590728,0.5023959 0.712187,1.2753125 H 5.853125 L 4.947707,4.8039895 H 4.141666 v -0.6625 h 2.0758332 v 0.6625 H 5.643332 L 5.930416,5.5879478 H 8.3816658 L 7.5977075,3.4789896 H 6.4383323 v -0.6625 h 1.0931252 q 0.265,0 0.4471875,0.1214583 0.1821874,0.1214584 0.2705208,0.364375 L 9.0883324,5.5879478 H 9.507916 q 0.888964,0 1.515523,0.6209171 0.62656,0.620917 0.62656,1.5018874 0,0.8915704 -0.621204,1.531987 -0.621205,0.6404159 -1.520879,0.6404159 -0.7906056,0 -1.3890529,-0.5299997 Q 7.5204159,8.8231557 7.3879159,8.028156 H 5.289999 Q 5.16854,8.8231557 4.577812,9.3531555 3.987082,9.8831552 3.192082,9.8831552 Z m 0,-0.6624997 q 0.53,0 0.92198,-0.3422916 Q 4.50604,8.5360727 4.63854,8.028156 H 3.324582 V 7.3656561 H 4.63854 q -0.1325,-0.496875 -0.53,-0.8060416 -0.3975,-0.3091667 -0.905416,-0.3091667 -0.618334,0 -1.054479,0.430625 -0.436146,0.4306249 -0.436146,1.0489583 0,0.6210936 0.430625,1.0558594 0.430625,0.434765 1.048958,0.434765 z M 6.5597907,7.3656561 H 7.3989575 Q 7.4431245,7.1116977 7.5701033,6.8025311 7.6970825,6.4933645 7.9179158,6.2504478 H 6.162291 Z M 9.507916,9.2206555 q 0.618333,0 1.048957,-0.434765 0.430626,-0.4347658 0.430626,-1.0558594 0,-0.6183334 -0.430626,-1.0489583 -0.430624,-0.430625 -1.048957,-0.430625 H 9.3312491 L 9.7618737,7.4981561 9.1435408,7.7079477 8.6687491,6.4712812 q -0.3202083,0.1877082 -0.4803125,0.5299999 -0.1601042,0.3422916 -0.1601042,0.72875 0,0.6210936 0.430625,1.0558594 0.430625,0.434765 1.0489586,0.434765 z M 3.18104,7.7300311 Z m 6.326876,0 z"
       id="path4681"
       style="display:inline;fill:#ffffff;stroke-width:0.0110417" /></g></svg>
