<?xml version="1.0" encoding="UTF-8" standalone="no"?>
<!-- Created with Inkscape (http://www.inkscape.org/) -->

<svg
   width="89.610207"
   height="34.649139"
   viewBox="0 0 23.709367 9.1675848"
   version="1.1"
   id="svg5"
   xml:space="preserve"
   inkscape:version="1.2.2 (732a01da63, 2022-12-09)"
   sodipodi:docname="oh.svg"
   xmlns:inkscape="http://www.inkscape.org/namespaces/inkscape"
   xmlns:sodipodi="http://sodipodi.sourceforge.net/DTD/sodipodi-0.dtd"
   xmlns="http://www.w3.org/2000/svg"
   xmlns:svg="http://www.w3.org/2000/svg"><sodipodi:namedview
     id="namedview7"
     pagecolor="#505050"
     bordercolor="#eeeeee"
     borderopacity="1"
     inkscape:showpageshadow="0"
     inkscape:pageopacity="0"
     inkscape:pagecheckerboard="0"
     inkscape:deskcolor="#505050"
     inkscape:document-units="mm"
     showgrid="false"
     inkscape:zoom="5.6568543"
     inkscape:cx="69.473241"
     inkscape:cy="14.849242"
     inkscape:window-width="1920"
     inkscape:window-height="1009"
     inkscape:window-x="-8"
     inkscape:window-y="-8"
     inkscape:window-maximized="1"
     inkscape:current-layer="svg5" /><defs
     id="defs2" /><path
     d="M 3.01665,9.1675849 V 7.4145019 L 2.307488,6.7664879 2.011209,8.0883749 0,7.6732729 0.09613,7.1771669 1.5387399,7.4671379 2.04335,4.9150751 1.4003739,5.2230107 V 6.2108073 H 0.867077 V 4.8602268 L 2.117425,4.3518336 Q 2.353499,4.2503434 2.455468,4.220875 2.557429,4.191399 2.663015,4.191399 q 0.1572809,0 0.279887,0.071862 0.122609,0.071868 0.2064469,0.2032989 L 3.462018,4.9522628 q 0.184379,0.2962788 0.508554,0.5107567 0.3241659,0.2144849 0.7673229,0.2144849 v 0.5333018 q -0.493903,0 -0.8765339,-0.2124335 Q 3.47872,5.7859398 3.148406,5.3569698 L 2.890265,6.3958304 3.541761,6.9965719 v 2.171013 z M 3.10616,3.9014346 q -0.242061,0 -0.410216,-0.1701989 -0.168147,-0.170199 -0.168147,-0.4081718 0,-0.2420613 0.168147,-0.4102159 0.168154,-0.1681548 0.410216,-0.1681548 0.237973,0 0.40612,0.1681548 0.168155,0.1681546 0.168155,0.4102159 0,0.2379728 -0.168155,0.4081718 -0.168147,0.1701989 -0.40612,0.1701989 z"
     id="path1080"
     style="stroke-width:0.00724932" /><path
     id="path1113-4"
     style="fill-opacity:1;stroke-width:0.00642576"
     d="m 12.534102,9.1628759 c 0.64606,-0.07789 1.16485,-0.56014 1.293996,-1.202869 l 0.01454,-0.07238 0.865426,-0.0015 0.865426,-0.0015 V 6.8178089 5.7511694 l -1.283548,-0.0015 -1.283547,-0.0015 -0.0016,-1.071498 -0.0016,-1.071497 h 1.285176 1.285172 V 3.1775388 2.7502237 l -0.769484,-7.23e-5 -0.769486,-7.23e-5 0.432646,-0.428844 L 14.899867,1.8923885 13.953149,0.946195 13.006432,0 12.0601,0.9463476 l -0.94633,0.9463475 0.431746,0.4271611 0.431745,0.4271611 -1.095061,0.00342 c -1.2017492,0.00369 -1.1181582,0.00104 -1.2796835,0.041946 -0.3180961,0.080629 -0.6103358,0.2859193 -0.8144798,0.5721358 -0.028892,0.040498 -0.099628,0.1436786 -0.1572152,0.2292832 -0.6525124,0.9700612 -1.03817,1.8140882 -1.1537019,2.5249222 -0.034209,0.210506 -0.033837,0.200445 -0.03672,1.0090414 l -0.00269,0.756604 0.6537654,0.0015 0.6537654,0.0015 0.017617,0.08354 c 0.083895,0.397811 0.3101499,0.732916 0.6449749,0.955264 0.1736265,0.115298 0.3703495,0.191832 0.5870046,0.228362 0.1063421,0.01794 0.3685361,0.01632 0.4734311,-0.0029 0.293945,-0.05386 0.561036,-0.186558 0.772818,-0.383938 l 0.05313,-0.04952 0.0451,0.04255 c 0.212627,0.200581 0.484273,0.336962 0.777156,0.390177 0.08375,0.01521 0.331093,0.02215 0.417675,0.01166 z m -0.302011,-0.858531 c -0.139545,-0.0278 -0.283996,-0.120627 -0.378257,-0.243079 -0.03057,-0.03969 -0.09083,-0.150781 -0.09083,-0.167415 0,-0.0083 0.07675,-0.0095 0.600431,-0.0095 0.330607,0 0.601972,0.0026 0.603863,0.0055 0.006,0.0097 -0.05583,0.124343 -0.09522,0.176562 -0.101469,0.134546 -0.268784,0.229654 -0.437405,0.248629 -0.05589,0.0063 -0.139011,0.0018 -0.202592,-0.01076 z m -2.165334,-0.0061 c -0.1769752,-0.0445 -0.3344403,-0.172167 -0.4175636,-0.338562 -0.017617,-0.03526 -0.030493,-0.06658 -0.02861,-0.06963 0.00179,-0.0031 0.2736042,-0.0055 0.6038396,-0.0055 0.48313,0 0.600433,0.0015 0.600433,0.0082 0,0.01303 -0.0426,0.09846 -0.06902,0.138476 -0.03732,0.05654 -0.121038,0.139847 -0.179746,0.178914 -0.153159,0.101909 -0.331621,0.132781 -0.509319,0.0881 z M 8.4537364,5.7440704 c 0,-0.01354 0.085291,-0.234437 0.1336572,-0.346194 C 8.6456126,5.2633304 8.789963,4.9732544 8.8720537,4.8257834 9.0258289,4.5495474 9.2245891,4.2329573 9.4489353,3.9069185 9.5638126,3.7399592 9.6723464,3.6546059 9.8156181,3.6185402 9.8692881,3.6050272 9.877219,3.6048822 10.58189,3.6048822 h 0.712038 v 1.0731032 1.073105 H 9.8738331 c -1.027313,0 -1.4200967,-0.0019 -1.4200967,-0.007 z M 12.664246,2.2345819 C 12.479574,2.0499351 12.328478,1.8959674 12.328478,1.8924332 c 0,-0.00355 0.152521,-0.1589688 0.338936,-0.3454089 l 0.338937,-0.3389829 0.342195,0.3421499 0.342195,0.3421512 -0.338936,0.3389816 c -0.186416,0.1864388 -0.341829,0.3389816 -0.345363,0.3389816 -0.0035,0 -0.157523,-0.1510756 -0.342196,-0.3357238 z m 5.948759,6.928294 c -0.64606,-0.07788 -1.16485,-0.56014 -1.293996,-1.202869 l -0.01454,-0.07238 -0.865426,-0.0015 -0.865426,-0.0015 V 6.8178089 5.7511694 l 1.283548,-0.0015 1.283547,-0.0015 0.0016,-1.071498 0.0016,-1.0714966 H 16.858698 15.573525 V 3.1775392 2.7502241 l 0.769485,-7.23e-5 0.769486,-7.24e-5 2.057311,-0.00306 1.095061,0.00342 c 1.201749,0.00369 1.118158,0.00104 1.279683,0.041946 0.318096,0.080629 0.610336,0.2859192 0.81448,0.5721358 0.02889,0.040498 0.09963,0.1436785 0.157215,0.2292832 0.652512,0.9700607 1.03817,1.8140877 1.153702,2.5249217 0.03421,0.210506 0.03384,0.200445 0.03672,1.0090415 l 0.0027,0.756604 -0.653765,0.0015 -0.653765,0.0015 -0.01762,0.08354 c -0.0839,0.397811 -0.31015,0.732916 -0.644975,0.955264 -0.173627,0.115298 -0.37035,0.191832 -0.587005,0.228362 -0.106341,0.01794 -0.368535,0.01632 -0.47343,-0.0029 -0.293945,-0.05386 -0.561036,-0.186558 -0.772818,-0.383938 l -0.05313,-0.04952 -0.0451,0.04255 c -0.212628,0.200581 -0.484274,0.336962 -0.777157,0.390177 -0.08375,0.01521 -0.331093,0.02215 -0.417675,0.01166 z m 0.302012,-0.858531 c 0.139544,-0.0278 0.283995,-0.120627 0.378256,-0.243079 0.03056,-0.03969 0.09083,-0.150781 0.09083,-0.167415 0,-0.0083 -0.07675,-0.0095 -0.600431,-0.0095 -0.330607,0 -0.601973,0.0026 -0.603863,0.0055 -0.006,0.0097 0.05583,0.124343 0.09522,0.176562 0.101469,0.134546 0.268784,0.229654 0.437405,0.248629 0.05589,0.0063 0.139011,0.0018 0.202593,-0.01076 z m 2.165332,-0.0061 c 0.176976,-0.0445 0.334441,-0.172167 0.417564,-0.338562 0.01762,-0.03526 0.03049,-0.06658 0.02861,-0.06963 -0.0018,-0.0031 -0.273604,-0.0055 -0.60384,-0.0055 -0.483129,0 -0.600432,0.0015 -0.600432,0.0082 0,0.01303 0.0426,0.09846 0.06902,0.138476 0.03732,0.05654 0.121037,0.139847 0.179745,0.178914 0.153159,0.101909 0.331621,0.132781 0.509319,0.0881 z M 22.69337,5.7441204 c 0,-0.01354 -0.08529,-0.234437 -0.133657,-0.346194 -0.05822,-0.134546 -0.202569,-0.424623 -0.28466,-0.572092 C 22.121278,4.5495484 21.922518,4.2329575 21.698171,3.9069188 21.583294,3.7399594 21.47476,3.6546062 21.331489,3.6185404 c -0.05367,-0.013513 -0.0616,-0.013658 -0.766273,-0.013658 h -0.712037 v 1.0731028 1.073105 h 1.420095 c 1.027312,0 1.420096,-0.0019 1.420096,-0.007 z"
     sodipodi:nodetypes="ccccccccccccccccccccccccccccccccccsscsscccccccssccccccscssccccsccccscccssssssccccsscsccccccccccccccccccscsccccsscsscscccccssccccccccssccccccccsscccscc" /></svg>
