<?xml version="1.0" encoding="UTF-8" standalone="no"?>
<!-- Created with Inkscape (http://www.inkscape.org/) -->

<svg
   width="48"
   height="48"
   viewBox="0 0 12.7 12.7"
   version="1.1"
   id="svg5"
   xml:space="preserve"
   inkscape:version="1.2.2 (732a01da63, 2022-12-09)"
   sodipodi:docname="pickup_dropoff.svg"
   xmlns:inkscape="http://www.inkscape.org/namespaces/inkscape"
   xmlns:sodipodi="http://sodipodi.sourceforge.net/DTD/sodipodi-0.dtd"
   xmlns="http://www.w3.org/2000/svg"
   xmlns:svg="http://www.w3.org/2000/svg"><sodipodi:namedview
     id="namedview7"
     pagecolor="#505050"
     bordercolor="#eeeeee"
     borderopacity="1"
     inkscape:showpageshadow="0"
     inkscape:pageopacity="0"
     inkscape:pagecheckerboard="0"
     inkscape:deskcolor="#505050"
     inkscape:document-units="mm"
     showgrid="false"
     inkscape:zoom="8.3553674"
     inkscape:cx="-1.6157279"
     inkscape:cy="29.442152"
     inkscape:window-width="1920"
     inkscape:window-height="1009"
     inkscape:window-x="-8"
     inkscape:window-y="-8"
     inkscape:window-maximized="1"
     inkscape:current-layer="layer1"><inkscape:grid
       type="xygrid"
       id="grid3937" /></sodipodi:namedview><defs
     id="defs2" /><g
     inkscape:label="Capa 1"
     inkscape:groupmode="layer"
     id="layer1"><rect
       style="fill:#0c47ad;stroke-width:0.28;fill-opacity:1;stroke-dasharray:none"
       id="rect3149"
       width="12.7"
       height="12.7"
       x="-5.5511151e-17"
       y="0"
       inkscape:label="rect359"
       ry="0.83773082" /><g
       style="display:none;fill:#000000;stroke-width:1.00061;stroke-dasharray:none"
       id="g147"
       transform="matrix(0.44165573,0,0,0.46817701,1.0501312,0.7318375)"><path
         d="M 0,0 H 24 V 24 H 0 Z"
         fill="none"
         id="path132"
         style="stroke-width:1.00061;stroke-dasharray:none" /><circle
         cx="12"
         cy="4"
         r="2"
         id="circle134"
         style="fill:#ffffff;stroke-width:1.00061;stroke-dasharray:none" /><path
         d="M 19,13 V 11 C 17.46,11.02 15.91,10.25 14.93,9.17 L 13.64,7.74 C 13.47,7.55 13.26,7.4 13.03,7.29 13.02,7.29 13.02,7.28 13.01,7.28 H 13 C 12.65,7.08 12.25,6.98 11.81,7.02 10.76,7.11 10,8.04 10,9.09 V 15 c 0,1.1 0.9,2 2,2 h 5 v 5 h 2 v -5.5 c 0,-1.1 -0.9,-2 -2,-2 h -3 v -3.45 c 1.29,1.07 3.25,1.94 5,1.95 z m -6.17,5 C 12.42,19.16 11.31,20 10,20 8.34,20 7,18.66 7,17 7,15.69 7.84,14.59 9,14.17 V 12.1 c -2.28,0.46 -4,2.48 -4,4.9 0,2.76 2.24,5 5,5 2.42,0 4.44,-1.72 4.9,-4 z"
         id="path136"
         style="fill:#ffffff;stroke-width:1.00061;stroke-dasharray:none" /></g><path
       d="M 2.5705594,11.389093 V 8.3655889 h 1.5117522 v 3.0235041 z m 2.5195869,0 V 5.3924764 Q 4.4602496,5.6066413 4.2712806,6.1798474 4.0823112,6.7530532 4.0823112,7.3577545 H 3.074477 q 0,-1.6125357 0.9448449,-2.5699789 0.9448451,-0.9574429 2.5825765,-0.9574429 1.2597933,0 1.8896902,-0.6235978 0.6298967,-0.6235978 0.6298967,-1.8959891 h 1.0078337 q 0,1.1086182 -0.4724215,1.9841746 Q 9.1844749,4.170477 8.1136505,4.535817 v 6.853276 H 7.1058158 V 8.3655889 H 6.0979812 V 11.389093 Z M 6.6018984,3.3264153 q -0.4157319,0 -0.7117833,-0.2960513 -0.2960515,-0.2960516 -0.2960515,-0.7117834 0,-0.4157317 0.2960515,-0.7117834 0.2960514,-0.2960514 0.7117833,-0.2960514 0.4157318,0 0.7117834,0.2960514 0.2960514,0.2960517 0.2960514,0.7117834 0,0.4157318 -0.2960514,0.7117834 -0.2960516,0.2960513 -0.7117834,0.2960513 z"
       id="path366"
       style="fill:#ffffff;stroke-width:0.0125979" /></g></svg>
