<?xml version="1.0" encoding="UTF-8" standalone="no"?>
<!-- Created with Inkscape (http://www.inkscape.org/) -->

<svg
   width="15.941721"
   height="19.920599"
   viewBox="0 0 4.2179137 5.2706585"
   version="1.1"
   id="svg5"
   xml:space="preserve"
   sodipodi:docname="tipolinea_6.svg"
   inkscape:version="1.2.2 (732a01da63, 2022-12-09)"
   xmlns:inkscape="http://www.inkscape.org/namespaces/inkscape"
   xmlns:sodipodi="http://sodipodi.sourceforge.net/DTD/sodipodi-0.dtd"
   xmlns="http://www.w3.org/2000/svg"
   xmlns:svg="http://www.w3.org/2000/svg"><sodipodi:namedview
     id="namedview7"
     pagecolor="#505050"
     bordercolor="#eeeeee"
     borderopacity="1"
     inkscape:showpageshadow="0"
     inkscape:pageopacity="0"
     inkscape:pagecheckerboard="0"
     inkscape:deskcolor="#505050"
     inkscape:document-units="mm"
     showgrid="false"
     inkscape:zoom="29.4264"
     inkscape:cx="1.8860615"
     inkscape:cy="11.996031"
     inkscape:window-width="1920"
     inkscape:window-height="1009"
     inkscape:window-x="-8"
     inkscape:window-y="-8"
     inkscape:window-maximized="1"
     inkscape:current-layer="svg5" /><defs
     id="defs2" /><path
     style="display:inline;fill-opacity:1;stroke-width:0.00395742"
     d="M 1.5525982,5.7544792 C 1.4984891,5.6881046 1.4603509,5.6330372 1.4184626,5.5607861 1.1463359,5.0914243 1.0219825,4.4370365 1.0800483,3.7799445 1.1132531,3.4041838 1.2057973,3.0571816 1.351482,2.7621778 1.4194939,2.6244597 1.4668502,2.5486793 1.5479406,2.447815 l 0.050536,-0.062864 0.6578475,-9.177e-4 0.6578466,-9.181e-4 -0.001,-0.2641476 -10e-4,-0.2641469 L 2.2522671,1.8539031 1.5923665,1.8529854 V 1.5918059 1.3306287 h 0.4498272 c 0.2474048,0 0.44901,-9.178e-4 0.4480117,-0.00192 -0.00101,-9.178e-4 -0.015098,-0.0039 -0.03133,-0.00635 -0.1576404,-0.024241 -0.279882,-0.133684 -0.3251316,-0.2910726 -0.00773,-0.026882 -0.00898,-0.04051 -0.00904,-0.098478 -6.82e-5,-0.080368 0.00662,-0.11141272 0.037599,-0.17429914 0.049094,-0.0996459 0.1372884,-0.17326901 0.2472678,-0.2064104 0.033115,-0.009988 0.040621,-0.0107373 0.1068506,-0.0106456 0.065622,8.796e-5 0.073927,9.1773e-4 0.1054201,0.0105844 0.047343,0.0145078 0.074629,0.0271647 0.1119084,0.0519815 0.1167471,0.0776954 0.1830017,0.2101356 0.1752259,0.35026554 -0.00547,0.098509 -0.044571,0.185503 -0.1150756,0.2560104 -0.064045,0.064042 -0.1321092,0.097342 -0.2359262,0.1154132 -0.014314,0.00252 0.1970412,0.0039 0.6173586,0.00398 0.3515186,1.04e-4 0.6373434,-3.143e-4 0.635167,-0.00122 -0.00217,-9.176e-4 -0.020603,-0.00429 -0.040945,-0.00766 C 3.6158339,1.2950568 3.4941522,1.1824663 3.4514839,1.0265409 c -0.01235,-0.045137 -0.012301,-0.13911512 1.023e-4,-0.18843602 0.010539,-0.0419171 0.037332,-0.10029603 0.061593,-0.13420143 0.037561,-0.052494 0.1027369,-0.10629717 0.158817,-0.13110178 0.049903,-0.0220789 0.087335,-0.0303997 0.1466224,-0.0326558 0.079567,-0.003135 0.1346609,0.009009 0.2011156,0.0439209 0.092273,0.048456 0.1636396,0.13690793 0.1951975,0.24192716 0.00983,0.032694 0.010718,0.0412976 0.010872,0.10487085 1.362e-4,0.060585 -9.674e-4,0.073166 -0.00883,0.10045662 -0.026271,0.091035 -0.077143,0.1657544 -0.1492262,0.2191882 -0.047091,0.034912 -0.1144362,0.062429 -0.1759394,0.071889 -0.016232,0.00252 -0.030332,0.00535 -0.03133,0.00635 -0.00101,9.178e-4 0.2006076,0.00192 0.4480123,0.00192 h 0.4498247 v 0.2611677 0.2611795 l -0.6599009,9.178e-4 -0.6599008,9.177e-4 -0.00101,0.2641598 -0.00101,0.2641568 0.6579499,6.96e-5 0.6579502,6.58e-5 0.04219,0.052869 c 0.073794,0.092461 0.1270041,0.1756024 0.1842469,0.2878818 0.1321736,0.2592546 0.224395,0.5585794 0.2700023,0.876349 0.022867,0.1593295 0.031348,0.2671838 0.034517,0.4389806 0.00961,0.5208019 -0.095081,1.0179954 -0.2995331,1.422546 C 4.9228626,5.5825441 4.8739358,5.6599199 4.799184,5.7539348 l -0.04484,0.056394 H 3.1761773 1.5980064 L 1.5526592,5.7546994 Z M 2.9141153,3.5702021 V 2.9093107 H 2.390061 1.8660068 l -0.019736,0.037489 c -0.142087,0.2698972 -0.2271539,0.600658 -0.2498948,0.9716526 -0.00448,0.073066 -0.0054,0.2509453 -0.00151,0.2883113 l 0.00254,0.024335 H 2.255759 2.9141063 Z M 4.7565,4.196463 C 4.7607291,4.1458427 4.7555593,3.9151165 4.7485142,3.8393076 4.7177084,3.5083114 4.6421054,3.226971 4.5158823,2.9736195 l -0.032039,-0.06431 H 3.9601701 3.4364962 v 0.6608918 0.6608882 h 0.6585564 0.6585563 z"
     id="path1182"
     transform="translate(-1.0660433,-0.53967118)" /></svg>
