<?xml version="1.0" encoding="UTF-8" standalone="no"?>
<!-- Created with Inkscape (http://www.inkscape.org/) -->

<svg
   width="19.928972"
   height="19.430578"
   viewBox="0 0 5.2728739 5.1410072"
   version="1.1"
   id="svg5"
   xml:space="preserve"
   inkscape:export-filename="tipolinea_6.svg"
   inkscape:export-xdpi="96"
   inkscape:export-ydpi="96"
   xmlns:inkscape="http://www.inkscape.org/namespaces/inkscape"
   xmlns:sodipodi="http://sodipodi.sourceforge.net/DTD/sodipodi-0.dtd"
   xmlns="http://www.w3.org/2000/svg"
   xmlns:svg="http://www.w3.org/2000/svg"><sodipodi:namedview
     id="namedview7"
     pagecolor="#505050"
     bordercolor="#eeeeee"
     borderopacity="1"
     inkscape:showpageshadow="0"
     inkscape:pageopacity="0"
     inkscape:pagecheckerboard="0"
     inkscape:deskcolor="#505050"
     inkscape:document-units="mm"
     showgrid="false" /><defs
     id="defs2" /><path
     style="display:inline;fill-opacity:1;stroke-width:0.00369328"
     d="m 0.98386303,4.9204671 -0.1037317,-0.220492 0.016937,-0.00791 C 0.90638163,4.6876287 1.8467834,4.2451352 2.9868417,3.7085907 4.1269002,3.1720462 5.0609278,2.7330691 5.0624601,2.7330895 c 0.00154,1.91e-5 0.049502,0.099321 0.1065992,0.2206717 l 0.1038145,0.2206396 -0.02441,0.011389 C 5.2350382,3.1920233 4.2946978,3.6345597 3.1588177,4.1691226 2.0229378,4.7036842 1.0922329,5.1410321 1.0905852,5.141007 1.0889188,5.140965 1.040909,5.0417457 0.98385893,4.9204695 Z M 0.67788743,4.174884 C 0.62640333,4.1624284 0.57124983,4.1255891 0.54153923,4.0838106 0.53252423,4.0711392 0.40976456,3.8297532 0.26873316,3.5474039 0.04817982,3.1058482 0.01144666,3.0300211 0.00611952,3.0053113 4.8551732e-4,2.9791893 -6.6482681e-5,2.9295943 5.5173186e-6,2.4587076 7.9247319e-5,1.8811255 -0.00145748,1.9154318 0.02621022,1.8582055 c 0.0123549,-0.025595 0.0212753,-0.037727 0.0453377,-0.061618 0.0164777,-0.016363 0.0374399,-0.034022 0.0465749,-0.039237 0.0451639,-0.025762 3.20009078,-1.72326723 3.22237998,-1.73380115 0.05293,-0.0250191 0.015288,-0.02353259903 0.5966482,-0.02353259903 0.5121891,0 0.5275605,1.46250004e-4 0.5552484,0.007312999 0.076452,0.0195525 0.1447976,0.0815669 0.1680317,0.15247639 0.00417,0.0126712 0.064533,0.24991668 0.1341733,0.52718898 L 4.9212239,1.1911262 v 0.4062605 c 0,0.4548146 0.00181,0.4231277 -0.026927,0.4819724 -0.010118,0.020764 -0.021387,0.035688 -0.044997,0.059605 L 4.8178112,2.170863 2.8219191,3.1687664 C 1.2634735,3.9479545 0.81995763,4.1682199 0.79833873,4.1737499 c -0.033164,0.00851 -0.087997,0.00899 -0.1204395,0.00118 z M 1.4772342,2.4597338 V 2.2122866 H 1.2297849 0.98233543 V 2.4597338 2.7071833 H 1.2297849 1.4772342 Z M 2.462441,1.9676063 2.4633448,1.7210799 H 2.2158691 1.9683946 V 1.9685558 2.2160317 L 2.21492,2.2151278 2.4614468,2.2142239 Z M 3.4457477,1.4736039 V 1.2261304 L 3.199223,1.2270342 2.9526962,1.2279382 2.9517924,1.4744646 2.9508885,1.7209887 H 3.1983643 3.4458387 Z M 4.4318528,1.3683606 V 1.2594009 L 4.3353655,0.87346742 4.2388794,0.48753392 H 4.0879163 3.9369539 v 0.494898 0.49489788 h 0.2474494 0.2474495 z"
     id="path2137" /></svg>
