<?xml version="1.0" encoding="UTF-8" standalone="no"?>
<!-- Created with Inkscape (http://www.inkscape.org/) -->

<svg
   width="16"
   height="21.286757"
   viewBox="0 0 4.2333333 5.632121"
   version="1.1"
   id="svg5"
   xml:space="preserve"
   inkscape:export-filename="tipolinea_6.svg"
   inkscape:export-xdpi="96"
   inkscape:export-ydpi="96"
   xmlns:inkscape="http://www.inkscape.org/namespaces/inkscape"
   xmlns:sodipodi="http://sodipodi.sourceforge.net/DTD/sodipodi-0.dtd"
   xmlns="http://www.w3.org/2000/svg"
   xmlns:svg="http://www.w3.org/2000/svg"><sodipodi:namedview
     id="namedview7"
     pagecolor="#505050"
     bordercolor="#eeeeee"
     borderopacity="1"
     inkscape:showpageshadow="0"
     inkscape:pageopacity="0"
     inkscape:pagecheckerboard="0"
     inkscape:deskcolor="#505050"
     inkscape:document-units="mm"
     showgrid="false" /><defs
     id="defs2" /><path
     d="m 0.52916656,5.6321208 q -0.112448,0 -0.188516,-0.076068 -0.07607,-0.076068 -0.07607,-0.1885156 V 4.8251417 Q 0.14552056,4.69285 0.07275996,4.5307927 -3.9283752e-8,4.3687354 -3.9283752e-8,4.1769125 V 1.6633709 q 0,-0.5490104 0.509322599283752,-0.8036719 0.50932304,-0.2546615 1.60734434,-0.2546615 1.137708,0 1.627188,0.2447396 0.489479,0.2447396 0.489479,0.8135938 v 2.5135416 q 0,0.1918229 -0.07276,0.3538802 -0.07276,0.1620573 -0.191823,0.294349 v 0.5423958 q 0,0.1124479 -0.07607,0.1885156 -0.07607,0.076068 -0.188515,0.076068 h -0.264583 q -0.112448,0 -0.188516,-0.076068 -0.07607,-0.076068 -0.07607,-0.1885156 V 5.1029542 h -2.116666 v 0.2645833 q 0,0.1124479 -0.07607,0.1885156 -0.07607,0.076068 -0.188516,0.076068 z M 2.1298959,1.3987875 h 1.481667 -2.96333434 z m 1.045104,1.8520834 H 0.52916656 3.7041669 Z M 0.52916656,2.7217042 H 3.7041669 v -0.79375 H 0.52916656 Z m 0.66145834,1.5875 q 0.165365,0 0.28112,-0.1157552 0.115755,-0.1157553 0.115755,-0.2811198 0,-0.1653646 -0.115755,-0.2811198 -0.115755,-0.1157552 -0.28112,-0.1157552 -0.1653643,0 -0.28112034,0.1157552 -0.115755,0.1157552 -0.115755,0.2811198 0,0.1653645 0.115755,0.2811198 0.11575604,0.1157552 0.28112034,0.1157552 z m 1.852084,0 q 0.165364,0 0.281119,-0.1157552 0.115756,-0.1157553 0.115756,-0.2811198 0,-0.1653646 -0.115756,-0.2811198 -0.115755,-0.1157552 -0.281119,-0.1157552 -0.165365,0 -0.28112,0.1157552 -0.115755,0.1157552 -0.115755,0.2811198 0,0.1653645 0.115755,0.2811198 0.115755,0.1157552 0.28112,0.1157552 z M 0.64822856,1.3987875 H 3.6115629 q -0.09922,-0.1124479 -0.426641,-0.1885156 -0.327422,-0.076068 -1.055026,-0.076068 -0.70776,0 -1.035182,0.082682 -0.32742234,0.082682 -0.44648534,0.1819016 z m 0.41010534,3.175 h 2.116666 q 0.218282,0 0.373724,-0.1554427 0.155443,-0.1554427 0.155443,-0.373724 V 3.2508709 H 0.52916656 v 0.7937499 q 0,0.2182813 0.155443,0.373724 0.155442,0.1554427 0.37372434,0.1554427 z"
     id="path326"
     style="display:inline;fill-opacity:1;stroke-width:0.00661458" /><path
     style="display:inline;fill-opacity:1;stroke-width:0.00343243"
     d="M 1.4110784,0.9586039 1.0903754,0.68275486 c 0,0 -0.060432,-0.15441597 -0.13425234,-0.33895922 -0.0738202,-0.18453585 -0.1350215,-0.33746509 -0.1359609,-0.33983947 -0.001479,-0.003698412 0.0480054,-0.004438092 0.24477554,-0.003698412 l 0.2464769,7.3968e-4 L 1.4483741,0.34338142 1.585341,0.68577276 H 2.1166693 2.6480051 L 2.7849646,0.34338142 2.9219315,9.9743751e-4 l 0.2464772,-7.3968e-4 c 0.1967702,-7.027e-4 0.2461292,-7.4e-6 0.2447682,0.003698402 -7.397e-4,0.002219 -0.062133,0.15530362 -0.1359536,0.33983947 -0.07382,0.18454325 -0.1342522,0.33853021 -0.1342522,0.33853021 L 2.9216826,0.9571645 Z"
     id="path2485"
     inkscape:label="pantografo"
     sodipodi:nodetypes="ccscccccccccccsccc" /></svg>
