<?xml version="1.0" encoding="UTF-8" standalone="no"?>
<!-- Created with Inkscape (http://www.inkscape.org/) -->

<svg
   width="48"
   height="48"
   viewBox="0 0 12.7 12.7"
   version="1.1"
   id="svg5"
   inkscape:version="1.2.2 (732a01da63, 2022-12-09)"
   sodipodi:docname="banderas.svg"
   xml:space="preserve"
   xmlns:inkscape="http://www.inkscape.org/namespaces/inkscape"
   xmlns:sodipodi="http://sodipodi.sourceforge.net/DTD/sodipodi-0.dtd"
   xmlns="http://www.w3.org/2000/svg"
   xmlns:svg="http://www.w3.org/2000/svg"><sodipodi:namedview
     id="namedview7"
     pagecolor="#505050"
     bordercolor="#eeeeee"
     borderopacity="1"
     inkscape:showpageshadow="0"
     inkscape:pageopacity="0"
     inkscape:pagecheckerboard="0"
     inkscape:deskcolor="#505050"
     inkscape:document-units="mm"
     showgrid="false"
     inkscape:zoom="8"
     inkscape:cx="-6.25"
     inkscape:cy="10"
     inkscape:window-width="1920"
     inkscape:window-height="1009"
     inkscape:window-x="-8"
     inkscape:window-y="-8"
     inkscape:window-maximized="1"
     inkscape:current-layer="layer4" /><defs
     id="defs2"><clipPath
       clipPathUnits="userSpaceOnUse"
       id="clipPath6608"><rect
         style="fill-opacity:1;stroke:none;stroke-width:0.615807;stroke-opacity:1"
         id="rect6610"
         width="12.7"
         height="7.112"
         x="9.5367426e-08"
         y="-4.4408921e-16" /></clipPath><clipPath
       clipPathUnits="userSpaceOnUse"
       id="clipPath6635"><path
         d="M 2.2440777e-4,4.4835186e-4 V 30.000224 H 59.999776 V 4.4835186e-4 Z"
         fill="#012169"
         id="path6637"
         style="stroke-width:0.99999" /></clipPath><clipPath
       clipPathUnits="userSpaceOnUse"
       id="clipPath6689"><path
         d="m -5.0709999e-8,-7.6729168 v 6.3500476 H 12.700095 v -6.3500476 z"
         fill="#012169"
         id="path6691"
         style="display:inline;stroke-width:0.211668" /></clipPath></defs><g
     inkscape:label="es"
     inkscape:groupmode="layer"
     id="layer1"
     transform="translate(13.797789,-9.4012052)"><rect
       style="fill:#ad1519;fill-opacity:1;stroke-width:0.141689"
       id="rect234"
       width="12.7"
       height="8.4666662"
       x="0"
       y="0" /><rect
       style="fill:#fabd00;fill-opacity:1;stroke-width:0.995464"
       id="rect950"
       width="12.7"
       height="4.2333331"
       x="0"
       y="2.1166666" /><path
       style="fill:#7c0000;fill-opacity:1;stroke-width:0.535517"
       d="M 2.9104167,2.7366236 H 5.55625 c 0,0 0.085835,2.993891 -1.3229167,2.9934185 C 2.8247164,5.7295696 2.9104167,2.7366236 2.9104167,2.7366236 Z"
       id="path12728"
       sodipodi:nodetypes="ccsc" /></g><g
     inkscape:groupmode="layer"
     id="layer3"
     inkscape:label="eu"
     clip-path="url(#clipPath6608)"
     transform="translate(-13.989843,-8.0539878)"><rect
       style="fill:#da291c;fill-opacity:1;stroke-width:0.615808"
       id="rect466"
       width="12.7"
       height="7.112"
       x="9.5367433e-08"
       y="0" /><path
       style="fill:none;fill-opacity:0.970822;stroke:#009a44;stroke-width:1.0922;stroke-dasharray:none;stroke-opacity:1"
       d="M 0,0 12.7,7.112 M 0,7.112 12.7,0"
       id="path4220"
       sodipodi:nodetypes="cccc" /><path
       style="fill:none;fill-opacity:0.970822;stroke:#ffffff;stroke-width:1.0922;stroke-dasharray:none;stroke-opacity:1"
       d="M 12.7,3.556 H 0 M 6.35,0 v 7.112"
       id="path5915"
       sodipodi:nodetypes="cccc" /></g><g
     inkscape:groupmode="layer"
     id="layer4"
     inkscape:label="en"
     transform="translate(-0.23151037,-0.381071)"
     clip-path="url(#clipPath6689)"><path
       d="M 0,0 V 30 H 60 V 0 Z"
       fill="#012169"
       id="path324"
       style="display:inline"
       transform="matrix(0.21166825,0,0,0.21166825,-4.755071e-5,-7.6730117)" /><path
       d="M 0,0 60,30 M 60,0 0,30"
       stroke="#ffffff"
       stroke-width="6"
       id="path326"
       style="display:inline"
       transform="matrix(0.21166825,0,0,0.21166825,-4.755071e-5,-7.6730117)" /><path
       d="M 0,0 60,30 M 60,0 0,30"
       clip-path="url(#t)"
       stroke="#c8102e"
       stroke-width="4"
       id="path328"
       sodipodi:nodetypes="cccc"
       style="display:inline"
       transform="matrix(0.21166825,0,0,0.21166825,-4.755071e-5,-7.6730117)" /><path
       d="M 30,0 V 30 M 0,15 h 60"
       stroke="#ffffff"
       stroke-width="10"
       id="path330"
       style="display:inline"
       transform="matrix(0.21166825,0,0,0.21166825,-4.755071e-5,-7.6730117)" /><path
       d="M 30,0 V 30 M 0,15 h 60"
       stroke="#c8102e"
       stroke-width="6"
       id="path332"
       style="display:inline"
       transform="matrix(0.21166825,0,0,0.21166825,-4.755071e-5,-7.6730117)" /></g></svg>
