<?xml version="1.0" encoding="UTF-8" standalone="no"?>
<!-- Created with Inkscape (http://www.inkscape.org/) -->

<svg
   width="512"
   height="512"
   viewBox="0 0 135.46666 135.46667"
   version="1.1"
   id="svg5"
   inkscape:version="1.2.2 (732a01da63, 2022-12-09)"
   sodipodi:docname="iconos.svg"
   xml:space="preserve"
   inkscape:export-filename="icono.svg"
   inkscape:export-xdpi="96"
   inkscape:export-ydpi="96"
   xmlns:inkscape="http://www.inkscape.org/namespaces/inkscape"
   xmlns:sodipodi="http://sodipodi.sourceforge.net/DTD/sodipodi-0.dtd"
   xmlns="http://www.w3.org/2000/svg"
   xmlns:svg="http://www.w3.org/2000/svg"><sodipodi:namedview
     id="namedview7"
     pagecolor="#505050"
     bordercolor="#eeeeee"
     borderopacity="1"
     inkscape:showpageshadow="0"
     inkscape:pageopacity="0"
     inkscape:pagecheckerboard="true"
     inkscape:deskcolor="#505050"
     inkscape:document-units="mm"
     showgrid="false"
     inkscape:zoom="1"
     inkscape:cx="34"
     inkscape:cy="265"
     inkscape:window-width="1920"
     inkscape:window-height="1009"
     inkscape:window-x="-8"
     inkscape:window-y="-8"
     inkscape:window-maximized="1"
     inkscape:current-layer="layer1-5" /><defs
     id="defs2"><clipPath
       clipPathUnits="userSpaceOnUse"
       id="clipHatching"><rect
         width="8"
         height="8"
         x="0"
         y="0"
         id="rect188" /></clipPath><pattern
       patternUnits="userSpaceOnUse"
       width="8"
       height="8"
       id="hatching"><path
         d="M 1,-1 -1,1 M 9,7 7,9 M 9,-1 -1,9"
         clip-path="url(#clipHatching)"
         id="path191" /></pattern><clipPath
       clipPathUnits="userSpaceOnUse"
       id="clipHatching-1"><rect
         width="8"
         height="8"
         x="0"
         y="0"
         id="rect639" /></clipPath><pattern
       patternUnits="userSpaceOnUse"
       width="8"
       height="8"
       id="hatching-1"><path
         d="M 1,-1 -1,1 M 9,7 7,9 M 9,-1 -1,9"
         clip-path="url(#clipHatching-1)"
         id="path642" /></pattern></defs><g
     id="g703"
     transform="matrix(0.26406758,0,0,0.26406758,0.13203379,0.13203379)"
     style="display:inline"><g
       inkscape:label="Calque 1"
       id="layer1" /><g
       inkscape:label="Keylines"
       id="keylines"><circle
         cx="256"
         cy="256"
         r="80"
         id="circle667" /><circle
         cx="256"
         cy="256"
         r="176"
         id="circle669" /><rect
         width="256"
         height="352"
         x="128"
         y="80"
         ry="24"
         id="rect671" /><rect
         width="352"
         height="256"
         x="80"
         y="128"
         ry="24"
         id="rect673" /><rectn
         width="304"
         height="304"
         x="104"
         y="104"
         ry="24" /></g><g
       inkscape:label="Mask"
       id="mask"><path
         d="M 0,0 V 512 H 512 V 0 Z M 64,64 H 448 V 448 H 64 Z"
         style="fill:url(#hatching-1)"
         id="path676" /><path
         d="m 256,512 c 112.1778,0 174.5778,0 215.2889,-40.7111 C 512,430.5778 512,368.1778 512,256 512,143.8222 512,81.4222 471.2889,40.7111 430.5778,0 368.1778,0 256,0 143.8222,0 81.4222,0 40.7111,40.7111 0,81.4222 0,143.8222 0,256 0,368.1778 0,430.5778 40.7111,471.2889 81.4222,512 143.8222,512 256,512 Z"
         id="path678" /><circle
         cx="256"
         cy="256"
         r="256"
         id="circle680" /><rect
         width="512"
         height="512"
         x="0"
         y="0"
         ry="128"
         id="rect682" /></g></g><g
     inkscape:label="posicion_bus"
     inkscape:groupmode="layer"
     id="layer1-5"
     style="display:inline"
     transform="matrix(7.4102367,0,0,7.3398792,20.678331,21.125406)"><path
       style="fill:#ffffff;fill-opacity:1;fill-rule:nonzero;stroke:none;stroke-width:0.018;stroke-dasharray:none"
       d="M 6.3499999,12.435375 3.175,8.9957916 1.5875,5.5562083 2.1166667,2.6457916 4.4979167,0.529125 6.35,0.26454166 8.2020833,0.529125 10.583333,2.6457916 11.1125,5.5562083 9.525,8.9957916 Z"
       id="path8332"
       inkscape:label="Fondo"
       sodipodi:nodetypes="ccccccccccc" /><path
       d="M 6.3500002,11.972089 C 7.7315809,10.767602 8.8201772,9.5529533 9.6157887,8.3281435 10.4114,7.1033331 10.809206,6.0413899 10.809206,5.142314 10.809206,3.8052411 10.387325,2.7020205 9.5435646,1.8326518 8.6998036,0.96328306 7.6352821,0.52859868 6.3500002,0.52859868 c -1.2852818,0 -2.3498033,0.43468438 -3.1935643,1.30405312 -0.843761,0.8693687 -1.2656415,1.9725893 -1.2656415,3.3096622 0,0.8990759 0.4020992,1.9610191 1.2062975,3.1858295 0.8041866,1.2248098 1.8884893,2.4394585 3.2529083,3.6439455 z m 0,0.727828 C 4.6937242,11.235205 3.4460962,9.8692076 2.6071161,8.6019228 1.7681361,7.3346479 1.348646,6.181445 1.348646,5.142314 c 0,-1.4909186 0.4854534,-2.7207035 1.45636,-3.6893547 C 3.7759008,0.48431976 4.9575655,0 6.3500002,0 7.7424349,0 8.9240997,0.48431976 9.8949947,1.4529593 10.865901,2.4216105 11.351354,3.6513954 11.351354,5.142314 c 0,1.039131 -0.41949,2.1923339 -1.25847,3.4596088 C 9.2539043,9.8692076 8.0062763,11.235205 6.3500002,12.699917 Z"
       id="path299"
       style="display:inline;mix-blend-mode:normal;fill:#000000;fill-opacity:1;fill-rule:nonzero;stroke-width:0.0179999;stroke-dasharray:none"
       inkscape:label="Bubble"
       sodipodi:nodetypes="cssssssccccssssscc" /><path
       d="m 4.3780312,8.694752 q -0.091891,0 -0.1615615,-0.05215 -0.069679,-0.05214 -0.069679,-0.137698 V 7.757651 Q 3.8991363,7.6556001 3.7328428,7.3753048 3.5665395,7.0950095 3.5665395,6.7620319 V 3.1927698 q 0,-0.614386 0.6668916,-0.8963515 0.6668817,-0.2819747 2.1221634,-0.2819747 1.4582226,0 2.1180443,0.279683 0.659821,0.279683 0.659821,0.8986432 v 3.5692614 q 0,0.3329776 -0.166303,0.6132729 -0.166294,0.2802953 -0.413948,0.3823462 V 8.504901 q 0,0.08555 -0.06968,0.137698 -0.06967,0.05215 -0.161562,0.05215 h -0.083494 q -0.1011699,0 -0.1708401,-0.05215 -0.069679,-0.05215 -0.069679,-0.137698 V 7.9375 H 4.7020463 v 0.567401 q 0,0.08555 -0.069679,0.137698 -0.069672,0.05215 -0.1708397,0.05215 z M 6.3557053,3.0157782 H 8.7266548 3.9697801 Z M 7.9551331,5.6022523 H 3.9876217 8.7123758 Z M 3.9876217,5.1811783 H 8.7123758 V 3.4368522 H 3.9876217 Z m 0.970689,1.8249355 q 0.1882092,0 0.3181877,-0.1308137 0.1299693,-0.1308229 0.1299693,-0.319023 0,-0.1882085 -0.1308138,-0.3205996 Q 5.1448402,6.1032864 4.956631,6.1032864 q -0.1882085,0 -0.3205996,0.1332257 -0.1323911,0.1332356 -0.1323911,0.3214447 0,0.1881994 0.1332257,0.3181779 0.1332355,0.1299791 0.3214447,0.1299791 z m 2.785056,0 q 0.188209,0 0.3206001,-0.1308137 0.1323911,-0.1308229 0.1323911,-0.319023 0,-0.1882085 -0.1332262,-0.3205996 -0.1332354,-0.1323911 -0.3214443,-0.1323911 -0.1882089,0 -0.3181877,0.1332257 -0.1299698,0.1332356 -0.1299698,0.3214447 0,0.1881994 0.1308142,0.3181779 0.1308137,0.1299791 0.3190226,0.1299791 z M 3.9697801,3.0157782 H 8.7266548 Q 8.5467968,2.7317158 7.9426447,2.583626 7.3384926,2.4355268 6.3557053,2.4355268 q -1.1162458,0 -1.6882767,0.1377447 Q 4.0953885,2.7110254 3.9697801,3.0157782 Z M 4.744865,7.5164256 h 3.2102681 q 0.3211657,0 0.5392047,-0.2415957 0.218038,-0.2415866 0.218038,-0.55919 V 5.6022523 H 3.9876217 v 1.1133876 q 0,0.3176034 0.2180388,0.55919 0.2180382,0.2415957 0.5392045,0.2415957 z"
       id="path6223"
       style="display:none;stroke-width:0.00927825"
       inkscape:label="Bus_outline" /><path
       d="m 4.3780633,8.6947414 q -0.09189,0 -0.161559,-0.052151 -0.06968,-0.052144 -0.06968,-0.137696 V 7.7576543 Q 3.8991753,7.6556044 3.7328843,7.3753135 3.5665833,7.0950226 3.5665833,6.7620506 V 3.1928452 q 0,-0.6112403 0.666881,-0.8947693 0.666872,-0.2835384 2.12213,-0.2835384 1.4582,0 2.118011,0.2796786 0.659811,0.2796786 0.659811,0.8986291 v 3.5692054 q 0,0.332972 -0.1663,0.6132629 -0.166291,0.2802909 -0.413942,0.3823408 v 0.7472384 q 0,0.085553 -0.06968,0.137696 -0.06967,0.052151 -0.161559,0.052151 h -0.08349 q -0.105343,0 -0.172924,-0.052151 -0.06759,-0.052144 -0.06759,-0.137696 v -0.567392 h -3.295858 v 0.567392 q 0,0.085553 -0.0676,0.137696 -0.06758,0.052151 -0.172925,0.052151 z m -0.390403,-3.513519 h 4.724679 V 3.4369238 h -4.724679 z m 0.971221,1.8249068 q 0.187658,0 0.317635,-0.1313591 0.129968,-0.1313591 0.129968,-0.3190178 0,-0.1876585 -0.13136,-0.3200475 -0.131358,-0.1323891 -0.319018,-0.1323891 -0.187658,0 -0.320047,0.1337715 -0.132389,0.1337715 -0.132389,0.32143 0,0.1876586 0.133771,0.3176353 0.133781,0.1299767 0.32144,0.1299767 z m 2.785012,0 q 0.187658,0 0.320048,-0.1313591 0.132389,-0.1313591 0.132389,-0.3190178 0,-0.1876585 -0.133772,-0.3200475 -0.13378,-0.1323891 -0.321439,-0.1323891 -0.187659,0 -0.317635,0.1337715 -0.129968,0.1337715 -0.129968,0.32143 0,0.1876586 0.131359,0.3176353 0.13136,0.1299767 0.319018,0.1299767 z"
       id="path3866"
       style="display:inline;stroke-width:0.00927811"
       inkscape:label="Bus_filled" /></g><style
     id="style186"><![CDATA[
#keylines circle, #keylines rect { 
   vector-effect: non-scaling-stroke;
   fill: none;
   stroke: #0000FF;
}
#mask path, #mask rect, #mask circle, #hatching path { 
   vector-effect: non-scaling-stroke;
   fill: none;
   stroke: #FF0000;
}
#keylines, #mask {
   opacity: 0.5;
}
]]></style><style
     id="style637"><![CDATA[
#keylines circle, #keylines rect { 
   vector-effect: non-scaling-stroke;
   fill: none;
   stroke: #0000FF;
}
#mask path, #mask rect, #mask circle, #hatching path { 
   vector-effect: non-scaling-stroke;
   fill: none;
   stroke: #FF0000;
}
#keylines, #mask {
   opacity: 0.5;
}
]]></style></svg>
