<?xml version="1.0" encoding="UTF-8" standalone="no"?>
<!-- Created with Inkscape (http://www.inkscape.org/) -->

<svg
   width="48"
   height="48"
   viewBox="0 0 12.7 12.7"
   version="1.1"
   id="svg5"
   xml:space="preserve"
   inkscape:export-filename="posicion_aeriallift.png"
   inkscape:export-xdpi="96"
   inkscape:export-ydpi="96"
   inkscape:version="1.2.2 (732a01da63, 2022-12-09)"
   sodipodi:docname="posiciones.svg"
   xmlns:inkscape="http://www.inkscape.org/namespaces/inkscape"
   xmlns:sodipodi="http://sodipodi.sourceforge.net/DTD/sodipodi-0.dtd"
   xmlns="http://www.w3.org/2000/svg"
   xmlns:svg="http://www.w3.org/2000/svg"><sodipodi:namedview
     id="namedview7"
     pagecolor="#505050"
     bordercolor="#eeeeee"
     borderopacity="1"
     inkscape:showpageshadow="0"
     inkscape:pageopacity="0"
     inkscape:pagecheckerboard="0"
     inkscape:deskcolor="#505050"
     inkscape:document-units="mm"
     showgrid="true"
     inkscape:lockguides="false"
     showguides="false"
     inkscape:zoom="16"
     inkscape:cx="10.4375"
     inkscape:cy="76.6875"
     inkscape:window-width="1920"
     inkscape:window-height="1009"
     inkscape:window-x="-8"
     inkscape:window-y="-8"
     inkscape:window-maximized="1"
     inkscape:current-layer="g2439"><sodipodi:guide
       position="0,12.7"
       orientation="0,48"
       id="guide1394"
       inkscape:locked="false" /><sodipodi:guide
       position="12.7,12.7"
       orientation="48,0"
       id="guide1396"
       inkscape:locked="false" /><sodipodi:guide
       position="12.7,0"
       orientation="0,-48"
       id="guide1398"
       inkscape:locked="false" /><sodipodi:guide
       position="0,0"
       orientation="-48,0"
       id="guide1400"
       inkscape:locked="false" /><inkscape:grid
       type="xygrid"
       id="grid1402"
       empspacing="4" /><sodipodi:guide
       position="12.7,-6.35"
       orientation="0,1"
       id="guide3219"
       inkscape:locked="false"
       inkscape:label=""
       inkscape:color="rgb(0,134,229)" /><sodipodi:guide
       position="1.0583333,-3.175"
       orientation="-1,0"
       id="guide4673"
       inkscape:locked="false"
       inkscape:label=""
       inkscape:color="rgb(0,134,229)" /></sodipodi:namedview><defs
     id="defs2"><linearGradient
       id="linearGradient6234"
       inkscape:swatch="solid"><stop
         style="stop-color:#ffffff;stop-opacity:1;"
         offset="0"
         id="stop6232" /></linearGradient></defs><g
     inkscape:label="posicion_tr"
     inkscape:groupmode="layer"
     id="g9262"
     style="display:inline"
     transform="translate(13.643532,14.61039)"><path
       style="fill:#ffffff;fill-opacity:1;fill-rule:nonzero;stroke:none;stroke-width:0.018;stroke-dasharray:none"
       d="M 6.3499999,12.435417 3.175,8.9958333 1.5875,5.55625 2.1166667,2.6458333 4.4979167,0.52916667 6.35,0.26458333 8.2020833,0.52916667 10.583333,2.6458333 11.1125,5.55625 9.525,8.9958333 Z"
       id="path9256"
       inkscape:label="Fondo"
       sodipodi:nodetypes="ccccccccccc" /><path
       d="M 6.3499678,11.972167 C 7.7315575,10.767672 8.8201608,9.5530152 9.6157775,8.3281975 10.411394,7.1033791 10.809202,6.041429 10.809202,5.1423473 10.809202,3.8052658 10.387319,2.702038 9.5435529,1.8326637 8.6997864,0.9632893 7.635258,0.5286021 6.3499678,0.5286021 c -1.2852901,0 -2.3498185,0.4346872 -3.193585,1.3040616 -0.8437665,0.8693743 -1.2656497,1.9726021 -1.2656497,3.3096836 0,0.8990817 0.4021018,1.9610318 1.2063053,3.1858502 0.8041918,1.2248177 1.8885016,2.4394745 3.2529294,3.6439695 z m 0,0.727832 C 4.6936811,11.235278 3.446045,9.8692715 2.6070595,8.6019785 1.768074,7.3346954 1.3485812,6.181485 1.3485812,5.1423473 c 0,-1.4909282 0.4854565,-2.7207211 1.4563694,-3.6893786 C 3.7758517,0.4843229 4.9575241,0 6.3499678,0 7.7424115,0 8.924084,0.4843229 9.8949853,1.4529687 c 0.9709127,0.9686575 1.4563687,2.1984504 1.4563687,3.6893786 0,1.0391377 -0.419493,2.1923481 -1.258478,3.4596312 -0.8389853,1.267293 -2.0866214,2.6332995 -3.7429082,4.0980205 z"
       id="path9258"
       style="display:inline;mix-blend-mode:normal;fill:#d45500;fill-opacity:1;fill-rule:nonzero;stroke-width:0.018;stroke-dasharray:none"
       inkscape:label="Bubble"
       sodipodi:nodetypes="cssssssccccssssscc" /><path
       d="m 4.3780312,8.694752 q -0.091891,0 -0.1615615,-0.05215 -0.069679,-0.05214 -0.069679,-0.137698 V 7.757651 Q 3.8991363,7.6556001 3.7328428,7.3753048 3.5665395,7.0950095 3.5665395,6.7620319 V 3.1927698 q 0,-0.614386 0.6668916,-0.8963515 0.6668817,-0.2819747 2.1221634,-0.2819747 1.4582226,0 2.1180443,0.279683 0.659821,0.279683 0.659821,0.8986432 v 3.5692614 q 0,0.3329776 -0.166303,0.6132729 -0.166294,0.2802953 -0.413948,0.3823462 V 8.504901 q 0,0.08555 -0.06968,0.137698 -0.06967,0.05215 -0.161562,0.05215 h -0.083494 q -0.1011699,0 -0.1708401,-0.05215 -0.069679,-0.05215 -0.069679,-0.137698 V 7.9375 H 4.7020463 v 0.567401 q 0,0.08555 -0.069679,0.137698 -0.069672,0.05215 -0.1708397,0.05215 z M 6.3557053,3.0157782 H 8.7266548 3.9697801 Z M 7.9551331,5.6022523 H 3.9876217 8.7123758 Z M 3.9876217,5.1811783 H 8.7123758 V 3.4368522 H 3.9876217 Z m 0.970689,1.8249355 q 0.1882092,0 0.3181877,-0.1308137 0.1299693,-0.1308229 0.1299693,-0.319023 0,-0.1882085 -0.1308138,-0.3205996 Q 5.1448402,6.1032864 4.956631,6.1032864 q -0.1882085,0 -0.3205996,0.1332257 -0.1323911,0.1332356 -0.1323911,0.3214447 0,0.1881994 0.1332257,0.3181779 0.1332355,0.1299791 0.3214447,0.1299791 z m 2.785056,0 q 0.188209,0 0.3206001,-0.1308137 0.1323911,-0.1308229 0.1323911,-0.319023 0,-0.1882085 -0.1332262,-0.3205996 -0.1332354,-0.1323911 -0.3214443,-0.1323911 -0.1882089,0 -0.3181877,0.1332257 -0.1299698,0.1332356 -0.1299698,0.3214447 0,0.1881994 0.1308142,0.3181779 0.1308137,0.1299791 0.3190226,0.1299791 z M 3.9697801,3.0157782 H 8.7266548 Q 8.5467968,2.7317158 7.9426447,2.583626 7.3384926,2.4355268 6.3557053,2.4355268 q -1.1162458,0 -1.6882767,0.1377447 Q 4.0953885,2.7110254 3.9697801,3.0157782 Z M 4.744865,7.5164256 h 3.2102681 q 0.3211657,0 0.5392047,-0.2415957 0.218038,-0.2415866 0.218038,-0.55919 V 5.6022523 H 3.9876217 v 1.1133876 q 0,0.3176034 0.2180388,0.55919 0.2180382,0.2415957 0.5392045,0.2415957 z"
       id="path9260"
       style="display:none;fill:#d45500;stroke-width:0.00927825"
       inkscape:label="Bus_outline" /><path
       d="m 4.3780633,8.6947414 q -0.09189,0 -0.161559,-0.052151 -0.06968,-0.052144 -0.06968,-0.137696 V 7.7576543 Q 3.8991753,7.6556044 3.7328843,7.3753135 3.5665833,7.0950226 3.5665833,6.7620506 V 3.1928452 q 0,-0.6112403 0.666881,-0.8947693 0.666872,-0.2835384 2.12213,-0.2835384 1.4582,0 2.118011,0.2796786 0.659811,0.2796786 0.659811,0.8986291 v 3.5692054 q 0,0.332972 -0.1663,0.6132629 -0.166291,0.2802909 -0.413942,0.3823408 v 0.7472384 q 0,0.085553 -0.06968,0.137696 -0.06967,0.052151 -0.161559,0.052151 h -0.08349 q -0.105343,0 -0.172924,-0.052151 -0.06759,-0.052144 -0.06759,-0.137696 v -0.567392 h -3.295858 v 0.567392 q 0,0.085553 -0.0676,0.137696 -0.06758,0.052151 -0.172925,0.052151 z m -0.390403,-3.513519 h 4.724679 V 3.4369238 h -4.724679 z m 0.971221,1.8249068 q 0.187658,0 0.317635,-0.1313591 0.129968,-0.1313591 0.129968,-0.3190178 0,-0.1876585 -0.13136,-0.3200475 -0.131358,-0.1323891 -0.319018,-0.1323891 -0.187658,0 -0.320047,0.1337715 -0.132389,0.1337715 -0.132389,0.32143 0,0.1876586 0.133771,0.3176353 0.133781,0.1299767 0.32144,0.1299767 z m 2.785012,0 q 0.187658,0 0.320048,-0.1313591 0.132389,-0.1313591 0.132389,-0.3190178 0,-0.1876585 -0.133772,-0.3200475 -0.13378,-0.1323891 -0.321439,-0.1323891 -0.187659,0 -0.317635,0.1337715 -0.129968,0.1337715 -0.129968,0.32143 0,0.1876586 0.131359,0.3176353 0.13136,0.1299767 0.319018,0.1299767 z"
       id="path3931"
       style="display:inline;fill:#d45500;fill-opacity:1;stroke-width:0.00927811"
       inkscape:label="Bus_filled" /></g><g
     inkscape:label="posicion_funicular"
     inkscape:groupmode="layer"
     id="g3995"
     style="display:inline"><path
       style="fill:#ffffff;fill-opacity:1;fill-rule:nonzero;stroke:none;stroke-width:0.018;stroke-dasharray:none"
       d="M 6.3499999,12.435417 3.175,8.9958333 1.5875,5.55625 2.1166667,2.6458333 4.4979167,0.52916667 6.35,0.26458333 8.2020833,0.52916667 10.583333,2.6458333 11.1125,5.55625 9.525,8.9958333 Z"
       id="path3989"
       inkscape:label="Fondo"
       sodipodi:nodetypes="ccccccccccc" /><path
       d="M 6.3499678,11.972167 C 7.7315575,10.767672 8.8201608,9.5530152 9.6157775,8.3281975 10.411394,7.1033791 10.809202,6.041429 10.809202,5.1423473 10.809202,3.8052658 10.387319,2.702038 9.5435529,1.8326637 8.6997864,0.9632893 7.635258,0.5286021 6.3499678,0.5286021 c -1.2852901,0 -2.3498185,0.4346872 -3.193585,1.3040616 -0.8437665,0.8693743 -1.2656497,1.9726021 -1.2656497,3.3096836 0,0.8990817 0.4021018,1.9610318 1.2063053,3.1858502 0.8041918,1.2248177 1.8885016,2.4394745 3.2529294,3.6439695 z m 0,0.727832 C 4.6936811,11.235278 3.446045,9.8692715 2.6070595,8.6019785 1.768074,7.3346954 1.3485812,6.181485 1.3485812,5.1423473 c 0,-1.4909282 0.4854565,-2.7207211 1.4563694,-3.6893786 C 3.7758517,0.4843229 4.9575241,0 6.3499678,0 7.7424115,0 8.924084,0.4843229 9.8949853,1.4529687 c 0.9709127,0.9686575 1.4563687,2.1984504 1.4563687,3.6893786 0,1.0391377 -0.419493,2.1923481 -1.258478,3.4596312 -0.8389853,1.267293 -2.0866214,2.6332995 -3.7429082,4.0980205 z"
       id="path3991"
       style="display:inline;mix-blend-mode:normal;fill:#000000;fill-opacity:1;fill-rule:nonzero;stroke-width:0.018;stroke-dasharray:none"
       inkscape:label="Bubble"
       sodipodi:nodetypes="cssssssccccssssscc" /><path
       style="display:inline;fill-opacity:1;stroke-width:0.00459958"
       d="M 4.2917736,8.3646282 4.162587,8.0900291 4.18368,8.0801791 C 4.195275,8.0746491 5.366448,7.5235759 6.786268,6.8553675 8.2060882,6.187159 9.3693191,5.6404602 9.3712274,5.6404857 c 0.00192,2.37e-5 0.061649,0.1236936 0.1327579,0.2748228 l 0.1292898,0.2747829 -0.0304,0.014184 C 9.5861546,6.212033 8.4150623,6.7631688 7.0004458,7.4289094 5.5858295,8.0946484 4.4267367,8.6393182 4.4246847,8.6392869 4.4226049,8.6392346 4.3628186,8.515668 4.2917685,8.3646312 Z M 3.9107139,7.4360846 C 3.846596,7.420572 3.7779083,7.374693 3.7409069,7.322663 3.7296797,7.3068826 3.5767957,7.0062618 3.4011563,6.6546261 3.1264809,6.104716 3.0807336,6.0102815 3.0740993,5.9795081 c -0.00701,-0.032532 -0.00771,-0.094297 -0.00761,-0.6807361 9.18e-5,-0.7193164 -0.00182,-0.6765919 0.032636,-0.7478608 0.015387,-0.031882 0.026496,-0.046989 0.056464,-0.076741 0.020522,-0.020375 0.046628,-0.042368 0.058004,-0.048869 0.056247,-0.032081 3.9853689,-2.1461437 4.0131277,-2.1592627 0.065919,-0.03116 0.019039,-0.029304 0.7430611,-0.029304 0.6378765,0 0.6570199,1.818e-4 0.6915022,0.00909 0.095213,0.024347 0.1803298,0.1015866 0.2092654,0.1898937 0.00519,0.015779 0.080369,0.3112435 0.1670984,0.6565572 l 0.157691,0.6278409 v 0.5059531 c 0,0.5664232 0.00225,0.5269605 -0.033535,0.6002456 -0.012601,0.025854 -0.026635,0.044448 -0.056039,0.074225 L 9.0665492,4.9402695 6.5808803,6.1830502 C 4.6400039,7.1534452 4.0876526,7.427762 4.0607286,7.4346491 4.0194264,7.4452473 3.9511378,7.4458451 3.9107341,7.4361186 Z M 4.9062144,5.3000495 V 4.9918805 H 4.5980429 4.2898712 v 0.308169 0.3081718 H 4.5980429 4.9062144 Z M 6.1331835,4.6871579 6.1343091,4.3801351 H 5.8261047 5.5179019 v 0.3082047 0.3082047 l 0.3070208,-0.00113 0.3070226,-0.00113 z M 7.3577862,4.0719303 v -0.308201 l -0.30702,0.00113 -0.3070226,0.00113 -0.00113,0.3070216 -0.00113,0.3070191 H 7.0496968 7.3578996 Z M 8.5858741,3.9408615 V 3.8051635 L 8.4657099,3.3245255 8.3455469,2.8438862 H 8.1575381 7.9695307 v 0.6163422 0.6163422 h 0.3081716 0.3081718 z"
       id="path2137" /></g><g
     inkscape:label="posicion_aeriallift"
     inkscape:groupmode="layer"
     id="g4074"
     style="display:inline"
     transform="translate(-14.849684,13.49375)"><path
       style="fill:#ffffff;fill-opacity:1;fill-rule:nonzero;stroke:none;stroke-width:0.018;stroke-dasharray:none"
       d="M 6.3499999,12.435417 3.175,8.9958333 1.5875,5.55625 2.1166667,2.6458333 4.4979167,0.52916667 6.35,0.26458333 8.2020833,0.52916667 10.583333,2.6458333 11.1125,5.55625 9.525,8.9958333 Z"
       id="path4068"
       inkscape:label="Fondo"
       sodipodi:nodetypes="ccccccccccc" /><path
       d="M 6.3499678,11.972167 C 7.7315575,10.767672 8.8201608,9.5530152 9.6157775,8.3281975 10.411394,7.1033791 10.809202,6.041429 10.809202,5.1423473 10.809202,3.8052658 10.387319,2.702038 9.5435529,1.8326637 8.6997864,0.9632893 7.635258,0.5286021 6.3499678,0.5286021 c -1.2852901,0 -2.3498185,0.4346872 -3.193585,1.3040616 -0.8437665,0.8693743 -1.2656497,1.9726021 -1.2656497,3.3096836 0,0.8990817 0.4021018,1.9610318 1.2063053,3.1858502 0.8041918,1.2248177 1.8885016,2.4394745 3.2529294,3.6439695 z m 0,0.727832 C 4.6936811,11.235278 3.446045,9.8692715 2.6070595,8.6019785 1.768074,7.3346954 1.3485812,6.181485 1.3485812,5.1423473 c 0,-1.4909282 0.4854565,-2.7207211 1.4563694,-3.6893786 C 3.7758517,0.4843229 4.9575241,0 6.3499678,0 7.7424115,0 8.924084,0.4843229 9.8949853,1.4529687 c 0.9709127,0.9686575 1.4563687,2.1984504 1.4563687,3.6893786 0,1.0391377 -0.419493,2.1923481 -1.258478,3.4596312 -0.8389853,1.267293 -2.0866214,2.6332995 -3.7429082,4.0980205 z"
       id="path4070"
       style="display:inline;mix-blend-mode:normal;fill:#000000;fill-opacity:1;fill-rule:nonzero;stroke-width:0.018;stroke-dasharray:none"
       inkscape:label="Bubble"
       sodipodi:nodetypes="cssssssccccssssscc" /><path
       style="display:inline;fill-opacity:1;stroke-width:0.00514217"
       d="M 4.2403802,8.6587703 C 4.1700719,8.5725277 4.1205166,8.5009707 4.0660881,8.4070907 3.7124941,7.7972148 3.5509127,6.9469209 3.6263617,6.093114 3.6695077,5.6048607 3.7897565,5.153975 3.9790553,4.7706557 4.0674277,4.5917083 4.1289617,4.4932416 4.2343283,4.3621811 l 0.065665,-0.081681 0.854789,-0.00123 0.8547884,-0.00123 -0.0013,-0.3432259 -0.0013,-0.343226 -0.8574566,-0.00123 -0.8574567,-0.00123 V 3.2497826 2.9104167 h 0.5844908 c 0.3214711,0 0.5834314,-0.00123 0.5821343,-0.00245 -0.0013,-0.00123 -0.019618,-0.00502 -0.040709,-0.00824 C 5.2131312,2.8682256 5.0542938,2.726018 4.9954977,2.5215114 4.9854556,2.4865838 4.9838317,2.4688749 4.9837547,2.393552 4.9836661,2.2891238 4.9923507,2.2487855 5.03261,2.1670727 5.0964012,2.0375953 5.2109989,1.9419318 5.3539029,1.8988679 c 0.043029,-0.012976 0.052782,-0.013954 0.1388389,-0.013832 0.085268,1.142e-4 0.096058,0.00123 0.1369801,0.013751 0.061517,0.018851 0.096972,0.035295 0.1454106,0.067546 0.151698,0.1009558 0.2377875,0.273044 0.2276837,0.4551251 -0.0071,0.1280003 -0.057912,0.2410379 -0.149526,0.3326537 -0.083219,0.083215 -0.1716591,0.1264824 -0.3065561,0.1499647 -0.018598,0.00326 0.2560301,0.00502 0.802179,0.00518 0.4567536,1.346e-4 0.8281463,-4.081e-4 0.8253182,-0.00163 -0.00284,-0.00123 -0.026769,-0.00555 -0.053198,-0.00996 C 6.9212879,2.8642076 6.7631777,2.7179109 6.707736,2.5153057 6.6916895,2.4566593 6.6917536,2.3345425 6.7078689,2.2704568 c 0.013691,-0.054465 0.048506,-0.130322 0.080031,-0.1743774 0.048809,-0.068211 0.1334933,-0.1381196 0.2063626,-0.1703501 0.064846,-0.028685 0.1134805,-0.039498 0.1905168,-0.042428 0.103387,-0.00408 0.1749751,0.011711 0.261324,0.057067 0.1198964,0.062959 0.2126291,0.1778946 0.2536344,0.3143534 0.012766,0.042484 0.01393,0.053657 0.014131,0.136267 1.769e-4,0.078723 -0.00128,0.095064 -0.011483,0.1305301 -0.034137,0.1182891 -0.1002373,0.2153766 -0.1939002,0.2848077 -0.06119,0.045361 -0.1486949,0.081113 -0.2286106,0.093407 -0.021087,0.00326 -0.039415,0.00697 -0.040707,0.00824 -0.00128,0.00123 0.2606642,0.00245 0.5821358,0.00245 h 0.5844928 v 0.3393659 0.3393701 l -0.8574564,0.00123 -0.8574573,0.00123 -0.00128,0.3432422 -0.00128,0.3432382 0.8549224,8.97e-5 0.8549225,8.57e-5 0.05482,0.068692 c 0.095885,0.1201415 0.1650255,0.2281726 0.2394051,0.3740651 0.1717429,0.3368689 0.2915733,0.7258027 0.3508337,1.1387043 0.02971,0.2070283 0.040735,0.3471716 0.04485,0.5703989 C 9.1005525,7.1068443 8.9645253,7.7528838 8.6988657,8.278546 8.6196597,8.4352715 8.5560872,8.5358113 8.4589565,8.657973 L 8.4006905,8.73125 H 6.35 4.2993677 L 4.2404445,8.6589719 Z M 6.0094986,5.82058 V 4.9618359 H 5.3285566 4.6476149 l -0.025645,0.048715 C 4.4373462,5.361248 4.3268127,5.7910299 4.2972637,6.2730894 c -0.00582,0.094945 -0.00702,0.3260722 -0.00196,0.3746241 l 0.00331,0.031623 H 5.1540501 6.0094886 Z M 8.4034425,6.6343261 C 8.408941,6.5685508 8.4022511,6.2687522 8.3930686,6.1702488 8.3530393,5.7401605 8.2548034,5.3745949 8.0907924,5.0453972 L 8.0491593,4.961836 H 7.3687134 6.6882657 v 0.8587441 0.85874 H 7.5439763 8.399686 Z"
       id="path1182" /></g><g
     inkscape:label="posicion_ferry"
     inkscape:groupmode="layer"
     id="g188"
     style="display:inline"
     transform="translate(15.275114,0.34142407)"><path
       style="fill:#ffffff;fill-opacity:1;fill-rule:nonzero;stroke:none;stroke-width:0.018;stroke-dasharray:none"
       d="M 6.3499999,12.435417 3.175,8.9958333 1.5875,5.55625 2.1166667,2.6458333 4.4979167,0.52916667 6.35,0.26458333 8.2020833,0.52916667 10.583333,2.6458333 11.1125,5.55625 9.525,8.9958333 Z"
       id="path182"
       inkscape:label="Fondo"
       sodipodi:nodetypes="ccccccccccc" /><path
       d="M 6.3499678,11.972167 C 7.7315575,10.767672 8.8201608,9.5530152 9.6157775,8.3281975 10.411394,7.1033791 10.809202,6.041429 10.809202,5.1423473 10.809202,3.8052658 10.387319,2.702038 9.5435529,1.8326637 8.6997864,0.9632893 7.635258,0.5286021 6.3499678,0.5286021 c -1.2852901,0 -2.3498185,0.4346872 -3.193585,1.3040616 -0.8437665,0.8693743 -1.2656497,1.9726021 -1.2656497,3.3096836 0,0.8990817 0.4021018,1.9610318 1.2063053,3.1858502 0.8041918,1.2248177 1.8885016,2.4394745 3.2529294,3.6439695 z m 0,0.727832 C 4.6936811,11.235278 3.446045,9.8692715 2.6070595,8.6019785 1.768074,7.3346954 1.3485812,6.181485 1.3485812,5.1423473 c 0,-1.4909282 0.4854565,-2.7207211 1.4563694,-3.6893786 C 3.7758517,0.4843229 4.9575241,0 6.3499678,0 7.7424115,0 8.924084,0.4843229 9.8949853,1.4529687 c 0.9709127,0.9686575 1.4563687,2.1984504 1.4563687,3.6893786 0,1.0391377 -0.419493,2.1923481 -1.258478,3.4596312 -0.8389853,1.267293 -2.0866214,2.6332995 -3.7429082,4.0980205 z"
       id="path184"
       style="display:inline;mix-blend-mode:normal;fill:#000000;fill-opacity:1;fill-rule:nonzero;stroke-width:0.018;stroke-dasharray:none"
       inkscape:label="Bubble"
       sodipodi:nodetypes="cssssssccccssssscc" /><path
       d="M 6.35,5.5850126 Z M 4.0497954,7.0023276 3.5635826,5.2738889 q -0.024103,-0.080939 0.011197,-0.1581478 0.035318,-0.077208 0.11051,-0.1013201 L 4.1112341,4.8680349 V 3.316967 q 0,-0.1808192 0.1248585,-0.3033776 Q 4.3609483,2.891031 4.5417748,2.8864341 H 5.6582943 V 1.99092 h 1.3834345 v 0.8955141 h 1.1165194 q 0.178961,0 0.3047507,0.1257897 0.1257899,0.1257895 0.1257899,0.3047432 V 4.8726317 L 9.019322,5.014421 q 0.073477,0.024106 0.1145215,0.097589 0.041039,0.073477 0.014056,0.1572823 L 8.6502028,7.0023276 Q 8.3379223,6.933436 8.0748204,6.7586438 7.8117111,6.5838468 7.5486089,6.3031326 7.2983276,6.5976227 7.006726,6.8028444 6.7151241,7.0080738 6.3500006,7.0080738 q -0.365123,0 -0.6567253,-0.2052294 Q 5.401674,6.5976227 5.1513923,6.3031326 4.8911638,6.5838468 4.6266217,6.7586438 4.362079,6.9334403 4.0497954,7.0023276 Z M 3.4395798,8.2020924 V 7.8634088 h 0.5223884 q 0.3134255,0 0.6193921,-0.09773 0.3059668,-0.09773 0.5746216,-0.2782737 0.2686537,0.1819761 0.5746213,0.2715282 0.3059671,0.08955 0.6193968,0.08955 0.3134301,0 0.6193976,-0.08955 0.3059669,-0.08955 0.5746212,-0.2715282 0.2686542,0.1819761 0.5746214,0.2789905 0.3059672,0.097013 0.619397,0.097013 H 9.2604131 V 8.2020924 H 8.7380372 q -0.3088401,0 -0.6073448,-0.076923 Q 7.8321878,8.0482462 7.5440188,7.898992 7.2558497,8.0482443 6.9498828,8.1251693 6.6439153,8.2020833 6.35,8.2020833 q -0.2939149,0 -0.5998821,-0.076914 Q 5.4441505,8.0482462 5.1559819,7.898992 4.8678125,8.0482443 4.5702182,8.1251693 4.272613,8.2020829 3.9601439,8.2020829 H 3.4395874 Z M 4.4499061,4.7578267 6.35,4.1424444 8.2500944,4.7624162 V 3.316967 q 0,-0.040182 -0.02584,-0.066015 -0.02584,-0.02584 -0.066023,-0.02584 H 4.5417591 q -0.040182,0 -0.066023,0.02584 -0.02584,0.025833 -0.02584,0.066015 z m 1.8977956,1.9115642 q 0.3742802,0 0.6555609,-0.2873108 Q 7.2845437,6.0947692 7.5440188,5.7847794 7.7736434,6.0603292 7.9754178,6.2529169 8.177192,6.4455124 8.4228832,6.5850031 L 8.7891261,5.29512 6.35,4.5006427 3.9062892,5.29512 4.2771164,6.5758168 Q 4.518219,6.4455124 4.724583,6.2543574 4.9309537,6.0632021 5.1559819,5.7847794 5.4200466,6.0993661 5.6967378,6.3843782 5.9734291,6.6693909 6.3477017,6.6693909 Z"
       id="path173"
       style="display:none;stroke-width:0.00746265"
       inkscape:label="Ferry_outline" /><path
       d="M 4.0498015,7.0023976 3.5635896,5.2739586 Q 3.5394776,5.1930196 3.5747836,5.1158109 3.6100886,5.0386029 3.68529,5.0144912 L 4.1112264,4.8681041 V 3.3170368 q 0,-0.1808192 0.124857,-0.3033777 Q 4.3609405,2.8911005 4.5417671,2.8865035 H 5.6582864 V 1.9909896 h 1.3834347 v 0.8955139 h 1.1165194 q 0.1808266,0 0.3056837,0.1248571 0.124857,0.124857 0.124857,0.3056762 V 4.872701 l 0.4305332,0.1417902 q 0.073477,0.02411 0.1145214,0.097588 0.041044,0.073477 0.014057,0.1572824 l -0.497687,1.733036 Q 8.3379252,6.9335076 8.0741516,6.7587136 7.8103854,6.5839166 7.5486117,6.3032026 q -0.2502812,0.29449 -0.5410397,0.499712 -0.2907509,0.205229 -0.6575684,0.205229 -0.3668174,0 -0.6575684,-0.205229 -0.2907584,-0.205222 -0.5410397,-0.499712 -0.2589005,0.280714 -0.524107,0.455511 -0.2652064,0.174797 -0.577487,0.243684 z m -0.6102182,1.199765 v -0.338684 h 0.5223832 q 0.3134298,0 0.6193971,-0.09701 0.3059672,-0.09701 0.5746214,-0.278989 0.2686542,0.181976 0.5746215,0.271527 0.3059673,0.08955 0.6193971,0.08955 0.3134299,0 0.6193971,-0.08955 0.3059673,-0.08955 0.5746216,-0.271527 0.2686541,0.181976 0.5746214,0.278989 0.3059671,0.09701 0.619397,0.09701 h 0.522376 v 0.338684 h -0.522376 q -0.3088404,0 -0.6073449,-0.07692 -0.2985047,-0.07693 -0.5866735,-0.226177 -0.288169,0.149252 -0.5941363,0.226177 -0.3059673,0.07692 -0.5998824,0.07692 -0.2939151,0 -0.5998824,-0.07692 -0.3059672,-0.07693 -0.5941362,-0.226177 -0.2881689,0.149252 -0.5866735,0.226177 -0.2985047,0.07692 -0.607345,0.07692 z M 4.4499096,4.7578964 6.3500036,4.1425139 8.2500977,4.762486 V 3.3170368 q 0,-0.040186 -0.025835,-0.066014 -0.025835,-0.025835 -0.066022,-0.025835 H 4.5417672 q -0.040186,0 -0.066022,0.025835 -0.025835,0.025828 -0.025835,0.066014 z"
       id="path3943"
       style="display:inline;stroke-width:0.00746263"
       inkscape:label="Ferry_filled" /></g><g
     inkscape:label="posicion_bus"
     inkscape:groupmode="layer"
     id="layer1"
     style="display:inline"
     transform="translate(-14.931484,-0.2057523)"><path
       style="fill:#ffffff;fill-opacity:1;fill-rule:nonzero;stroke:none;stroke-width:0.018;stroke-dasharray:none"
       d="M 6.3499999,12.435417 3.175,8.9958333 1.5875,5.55625 2.1166667,2.6458333 4.4979167,0.52916667 6.35,0.26458333 8.2020833,0.52916667 10.583333,2.6458333 11.1125,5.55625 9.525,8.9958333 Z"
       id="path8332"
       inkscape:label="Fondo"
       sodipodi:nodetypes="ccccccccccc" /><path
       d="M 6.3499678,11.972167 C 7.7315575,10.767672 8.8201608,9.5530152 9.6157775,8.3281975 10.411394,7.1033791 10.809202,6.041429 10.809202,5.1423473 10.809202,3.8052658 10.387319,2.702038 9.5435529,1.8326637 8.6997864,0.9632893 7.635258,0.5286021 6.3499678,0.5286021 c -1.2852901,0 -2.3498185,0.4346872 -3.193585,1.3040616 -0.8437665,0.8693743 -1.2656497,1.9726021 -1.2656497,3.3096836 0,0.8990817 0.4021018,1.9610318 1.2063053,3.1858502 0.8041918,1.2248177 1.8885016,2.4394745 3.2529294,3.6439695 z m 0,0.727832 C 4.6936811,11.235278 3.446045,9.8692715 2.6070595,8.6019785 1.768074,7.3346954 1.3485812,6.181485 1.3485812,5.1423473 c 0,-1.4909282 0.4854565,-2.7207211 1.4563694,-3.6893786 C 3.7758517,0.4843229 4.9575241,0 6.3499678,0 7.7424115,0 8.924084,0.4843229 9.8949853,1.4529687 c 0.9709127,0.9686575 1.4563687,2.1984504 1.4563687,3.6893786 0,1.0391377 -0.419493,2.1923481 -1.258478,3.4596312 -0.8389853,1.267293 -2.0866214,2.6332995 -3.7429082,4.0980205 z"
       id="path299"
       style="display:inline;mix-blend-mode:normal;fill:#000000;fill-opacity:1;fill-rule:nonzero;stroke-width:0.018;stroke-dasharray:none"
       inkscape:label="Bubble"
       sodipodi:nodetypes="cssssssccccssssscc" /><path
       d="m 4.3780312,8.694752 q -0.091891,0 -0.1615615,-0.05215 -0.069679,-0.05214 -0.069679,-0.137698 V 7.757651 Q 3.8991363,7.6556001 3.7328428,7.3753048 3.5665395,7.0950095 3.5665395,6.7620319 V 3.1927698 q 0,-0.614386 0.6668916,-0.8963515 0.6668817,-0.2819747 2.1221634,-0.2819747 1.4582226,0 2.1180443,0.279683 0.659821,0.279683 0.659821,0.8986432 v 3.5692614 q 0,0.3329776 -0.166303,0.6132729 -0.166294,0.2802953 -0.413948,0.3823462 V 8.504901 q 0,0.08555 -0.06968,0.137698 -0.06967,0.05215 -0.161562,0.05215 h -0.083494 q -0.1011699,0 -0.1708401,-0.05215 -0.069679,-0.05215 -0.069679,-0.137698 V 7.9375 H 4.7020463 v 0.567401 q 0,0.08555 -0.069679,0.137698 -0.069672,0.05215 -0.1708397,0.05215 z M 6.3557053,3.0157782 H 8.7266548 3.9697801 Z M 7.9551331,5.6022523 H 3.9876217 8.7123758 Z M 3.9876217,5.1811783 H 8.7123758 V 3.4368522 H 3.9876217 Z m 0.970689,1.8249355 q 0.1882092,0 0.3181877,-0.1308137 0.1299693,-0.1308229 0.1299693,-0.319023 0,-0.1882085 -0.1308138,-0.3205996 Q 5.1448402,6.1032864 4.956631,6.1032864 q -0.1882085,0 -0.3205996,0.1332257 -0.1323911,0.1332356 -0.1323911,0.3214447 0,0.1881994 0.1332257,0.3181779 0.1332355,0.1299791 0.3214447,0.1299791 z m 2.785056,0 q 0.188209,0 0.3206001,-0.1308137 0.1323911,-0.1308229 0.1323911,-0.319023 0,-0.1882085 -0.1332262,-0.3205996 -0.1332354,-0.1323911 -0.3214443,-0.1323911 -0.1882089,0 -0.3181877,0.1332257 -0.1299698,0.1332356 -0.1299698,0.3214447 0,0.1881994 0.1308142,0.3181779 0.1308137,0.1299791 0.3190226,0.1299791 z M 3.9697801,3.0157782 H 8.7266548 Q 8.5467968,2.7317158 7.9426447,2.583626 7.3384926,2.4355268 6.3557053,2.4355268 q -1.1162458,0 -1.6882767,0.1377447 Q 4.0953885,2.7110254 3.9697801,3.0157782 Z M 4.744865,7.5164256 h 3.2102681 q 0.3211657,0 0.5392047,-0.2415957 0.218038,-0.2415866 0.218038,-0.55919 V 5.6022523 H 3.9876217 v 1.1133876 q 0,0.3176034 0.2180388,0.55919 0.2180382,0.2415957 0.5392045,0.2415957 z"
       id="path6223"
       style="display:none;stroke-width:0.00927825"
       inkscape:label="Bus_outline" /><path
       d="m 4.3780633,8.6947414 q -0.09189,0 -0.161559,-0.052151 -0.06968,-0.052144 -0.06968,-0.137696 V 7.7576543 Q 3.8991753,7.6556044 3.7328843,7.3753135 3.5665833,7.0950226 3.5665833,6.7620506 V 3.1928452 q 0,-0.6112403 0.666881,-0.8947693 0.666872,-0.2835384 2.12213,-0.2835384 1.4582,0 2.118011,0.2796786 0.659811,0.2796786 0.659811,0.8986291 v 3.5692054 q 0,0.332972 -0.1663,0.6132629 -0.166291,0.2802909 -0.413942,0.3823408 v 0.7472384 q 0,0.085553 -0.06968,0.137696 -0.06967,0.052151 -0.161559,0.052151 h -0.08349 q -0.105343,0 -0.172924,-0.052151 -0.06759,-0.052144 -0.06759,-0.137696 v -0.567392 h -3.295858 v 0.567392 q 0,0.085553 -0.0676,0.137696 -0.06758,0.052151 -0.172925,0.052151 z m -0.390403,-3.513519 h 4.724679 V 3.4369238 h -4.724679 z m 0.971221,1.8249068 q 0.187658,0 0.317635,-0.1313591 0.129968,-0.1313591 0.129968,-0.3190178 0,-0.1876585 -0.13136,-0.3200475 -0.131358,-0.1323891 -0.319018,-0.1323891 -0.187658,0 -0.320047,0.1337715 -0.132389,0.1337715 -0.132389,0.32143 0,0.1876586 0.133771,0.3176353 0.133781,0.1299767 0.32144,0.1299767 z m 2.785012,0 q 0.187658,0 0.320048,-0.1313591 0.132389,-0.1313591 0.132389,-0.3190178 0,-0.1876585 -0.133772,-0.3200475 -0.13378,-0.1323891 -0.321439,-0.1323891 -0.187659,0 -0.317635,0.1337715 -0.129968,0.1337715 -0.129968,0.32143 0,0.1876586 0.131359,0.3176353 0.13136,0.1299767 0.319018,0.1299767 z"
       id="path3866"
       style="display:inline;stroke-width:0.00927811"
       inkscape:label="Bus_filled" /></g><g
     inkscape:label="posicion_trolleybus"
     inkscape:groupmode="layer"
     id="g2439"
     style="display:inline"
     transform="translate(3.24e-5,14.512753)"><path
       style="fill:#ffffff;fill-opacity:1;fill-rule:nonzero;stroke:none;stroke-width:0.018;stroke-dasharray:none"
       d="M 6.3499999,12.435417 3.175,8.9958333 1.5875,5.55625 2.1166667,2.6458333 4.4979167,0.52916667 6.35,0.26458333 8.2020833,0.52916667 10.583333,2.6458333 11.1125,5.55625 9.525,8.9958333 Z"
       id="path2431"
       inkscape:label="Fondo"
       sodipodi:nodetypes="ccccccccccc" /><path
       d="M 6.3499678,11.972167 C 7.7315575,10.767672 8.8201608,9.5530152 9.6157775,8.3281975 10.411394,7.1033791 10.809202,6.041429 10.809202,5.1423473 10.809202,3.8052658 10.387319,2.702038 9.5435529,1.8326637 8.6997864,0.9632893 7.635258,0.5286021 6.3499678,0.5286021 c -1.2852901,0 -2.3498185,0.4346872 -3.193585,1.3040616 -0.8437665,0.8693743 -1.2656497,1.9726021 -1.2656497,3.3096836 0,0.8990817 0.4021018,1.9610318 1.2063053,3.1858502 0.8041918,1.2248177 1.8885016,2.4394745 3.2529294,3.6439695 z m 0,0.727832 C 4.6936811,11.235278 3.446045,9.8692715 2.6070595,8.6019785 1.768074,7.3346954 1.3485812,6.181485 1.3485812,5.1423473 c 0,-1.4909282 0.4854565,-2.7207211 1.4563694,-3.6893786 C 3.7758517,0.4843229 4.9575241,0 6.3499678,0 7.7424115,0 8.924084,0.4843229 9.8949853,1.4529687 c 0.9709127,0.9686575 1.4563687,2.1984504 1.4563687,3.6893786 0,1.0391377 -0.419493,2.1923481 -1.258478,3.4596312 -0.8389853,1.267293 -2.0866214,2.6332995 -3.7429082,4.0980205 z"
       id="path2433"
       style="display:inline;mix-blend-mode:normal;fill:#000000;fill-opacity:1;fill-rule:nonzero;stroke-width:0.018;stroke-dasharray:none"
       inkscape:label="Bubble"
       sodipodi:nodetypes="cssssssccccssssscc" /><path
       d="m 4.3780312,8.694752 q -0.091891,0 -0.1615615,-0.05215 -0.069679,-0.05214 -0.069679,-0.137698 V 7.757651 Q 3.8991363,7.6556001 3.7328428,7.3753048 3.5665395,7.0950095 3.5665395,6.7620319 V 3.1927698 q 0,-0.614386 0.6668916,-0.8963515 0.6668817,-0.2819747 2.1221634,-0.2819747 1.4582226,0 2.1180443,0.279683 0.659821,0.279683 0.659821,0.8986432 v 3.5692614 q 0,0.3329776 -0.166303,0.6132729 -0.166294,0.2802953 -0.413948,0.3823462 V 8.504901 q 0,0.08555 -0.06968,0.137698 -0.06967,0.05215 -0.161562,0.05215 h -0.083494 q -0.1011699,0 -0.1708401,-0.05215 -0.069679,-0.05215 -0.069679,-0.137698 V 7.9375 H 4.7020463 v 0.567401 q 0,0.08555 -0.069679,0.137698 -0.069672,0.05215 -0.1708397,0.05215 z M 6.3557053,3.0157782 H 8.7266548 3.9697801 Z M 7.9551331,5.6022523 H 3.9876217 8.7123758 Z M 3.9876217,5.1811783 H 8.7123758 V 3.4368522 H 3.9876217 Z m 0.970689,1.8249355 q 0.1882092,0 0.3181877,-0.1308137 0.1299693,-0.1308229 0.1299693,-0.319023 0,-0.1882085 -0.1308138,-0.3205996 Q 5.1448402,6.1032864 4.956631,6.1032864 q -0.1882085,0 -0.3205996,0.1332257 -0.1323911,0.1332356 -0.1323911,0.3214447 0,0.1881994 0.1332257,0.3181779 0.1332355,0.1299791 0.3214447,0.1299791 z m 2.785056,0 q 0.188209,0 0.3206001,-0.1308137 0.1323911,-0.1308229 0.1323911,-0.319023 0,-0.1882085 -0.1332262,-0.3205996 -0.1332354,-0.1323911 -0.3214443,-0.1323911 -0.1882089,0 -0.3181877,0.1332257 -0.1299698,0.1332356 -0.1299698,0.3214447 0,0.1881994 0.1308142,0.3181779 0.1308137,0.1299791 0.3190226,0.1299791 z M 3.9697801,3.0157782 H 8.7266548 Q 8.5467968,2.7317158 7.9426447,2.583626 7.3384926,2.4355268 6.3557053,2.4355268 q -1.1162458,0 -1.6882767,0.1377447 Q 4.0953885,2.7110254 3.9697801,3.0157782 Z M 4.744865,7.5164256 h 3.2102681 q 0.3211657,0 0.5392047,-0.2415957 0.218038,-0.2415866 0.218038,-0.55919 V 5.6022523 H 3.9876217 v 1.1133876 q 0,0.3176034 0.2180388,0.55919 0.2180382,0.2415957 0.5392045,0.2415957 z"
       id="path2435"
       style="display:none;stroke-width:0.00927825"
       inkscape:label="Bus_outline" /><path
       style="display:none;fill:#333333;fill-opacity:1;stroke-width:0.00464042"
       d="m 3.7379365,7.6774364 c -0.0897,-0.0259 -0.15351,-0.0968 -0.16701,-0.18573 -0.003,-0.0227 -0.005,-0.66754 -0.004,-2.13691 10e-4,-1.96029 0.002,-2.10797 0.009,-2.15608 0.0247,-0.16056 0.0615,-0.27783 0.12794,-0.4077497 0.16056,-0.31412 0.45563,-0.54806 0.79884,-0.63336 0.11313,-0.0281 0.19878,-0.0372 0.35151,-0.0372 0.0687,0 0.10789,-0.002 0.10789,-0.005 0,-0.003 -0.0817,-0.20876 -0.1815,-0.45825 -0.0998,-0.24948 -0.18254,-0.45623 -0.18381,-0.45944 -0.002,-0.005 0.0649,-0.006 0.33092,-0.005 l 0.33322,10e-4 0.18516,0.46288 0.18517,0.46289 h 0.71832 0.71833 l 0.18516,-0.46289 0.18517,-0.46288 0.33322,-10e-4 c 0.26602,-9.5e-4 0.33275,-1e-5 0.33091,0.005 -10e-4,0.003 -0.084,0.20996 -0.1838,0.45944 -0.0998,0.24949 -0.1815,0.45544 -0.1815,0.45767 0,0.002 0.0632,0.005 0.14037,0.006 0.14606,0.003 0.20862,0.009 0.30047,0.0307 0.30772,0.0729 0.57272,0.25747 0.74879,0.52163 0.10273,0.15412 0.16533,0.3209297 0.19635,0.5232397 0.008,0.05 0.008,0.17809 0.01,2.15758 9.9e-4,1.44073 -8e-5,2.11467 -0.003,2.13691 -0.0118,0.0796 -0.0703,0.15099 -0.14778,0.1803 -0.026,0.01 -0.0307,0.01 -0.40102,0.0112 l -0.37471,10e-4 v -0.30869 -0.3087 h -1.85617 -1.85616 v 0.30859 0.30859 l -0.36776,-4.1e-4 c -0.28653,-3.3e-4 -0.37236,-0.002 -0.38863,-0.006 z m 1.46405,-1.85865 c 0.0179,-0.006 0.0461,-0.0175 0.0626,-0.0266 0.0418,-0.0229 0.0995,-0.0821 0.12201,-0.1251 0.0476,-0.091 0.0476,-0.1989 1.5e-4,-0.29049 -0.0221,-0.0427 -0.0799,-0.1018 -0.12216,-0.12506 -0.12441,-0.0684 -0.27054,-0.0477 -0.37082,0.0526 -0.15925,0.15925 -0.10216,0.42236 0.11026,0.50816 0.0151,0.006 0.0386,0.0131 0.0523,0.0155 0.0384,0.007 0.10825,0.002 0.14558,-0.009 z m 2.44612,0.007 c 0.0922,-0.0176 0.17524,-0.0814 0.21757,-0.16708 0.0225,-0.0455 0.0316,-0.0848 0.0316,-0.1369 0,-0.11827 -0.062,-0.2197 -0.16854,-0.27567 -0.0482,-0.0253 -0.0787,-0.0325 -0.13922,-0.0327 -0.0615,-2.3e-4 -0.10183,0.01 -0.15313,0.0381 -0.0423,0.0233 -0.10005,0.0824 -0.12216,0.12509 -0.0611,0.11789 -0.0428,0.25752 0.0463,0.35377 0.0765,0.0826 0.1783,0.11637 0.28764,0.0954 z m 0.86945,-2.01977 c 0,-0.32249 -0.002,-0.49523 -0.005,-0.52321 -0.0292,-0.23857 -0.19415,-0.4391797 -0.42335,-0.5149697 -0.0988,-0.0327 0.0391,-0.0303 -1.73858,-0.0303 -1.77764,0 -1.63976,-0.002 -1.73858,0.0303 -0.23002,0.0761 -0.39446,0.2767797 -0.42371,0.5171697 -0.003,0.0247 -0.005,0.21873 -0.005,0.52089 v 0.48156 h 2.16707 2.16708 v -0.48144 z"
       id="path2455"
       inkscape:label="trolleybus" /><path
       d="m 4.3780633,8.6947414 q -0.09189,0 -0.161559,-0.052151 -0.06968,-0.052144 -0.06968,-0.137696 V 7.7576543 Q 3.8991753,7.6556044 3.7328843,7.3753135 3.5665833,7.0950226 3.5665833,6.7620506 V 3.1928452 q 0,-0.6112403 0.666881,-0.8947693 0.666872,-0.2835384 2.12213,-0.2835384 1.4582,0 2.118011,0.2796786 0.659811,0.2796786 0.659811,0.8986291 v 3.5692054 q 0,0.332972 -0.1663,0.6132629 -0.166291,0.2802909 -0.413942,0.3823408 v 0.7472384 q 0,0.085553 -0.06968,0.137696 -0.06967,0.052151 -0.161559,0.052151 h -0.08349 q -0.105343,0 -0.172924,-0.052151 -0.06759,-0.052144 -0.06759,-0.137696 v -0.567392 h -3.295858 v 0.567392 q 0,0.085553 -0.0676,0.137696 -0.06758,0.052151 -0.172925,0.052151 z m -0.390403,-3.513519 h 4.724679 V 3.4369238 h -4.724679 z m 0.971221,1.8249068 q 0.187658,0 0.317635,-0.1313591 0.129968,-0.1313591 0.129968,-0.3190178 0,-0.1876585 -0.13136,-0.3200475 -0.131358,-0.1323891 -0.319018,-0.1323891 -0.187658,0 -0.320047,0.1337715 -0.132389,0.1337715 -0.132389,0.32143 0,0.1876586 0.133771,0.3176353 0.133781,0.1299767 0.32144,0.1299767 z m 2.785012,0 q 0.187658,0 0.320048,-0.1313591 0.132389,-0.1313591 0.132389,-0.3190178 0,-0.1876585 -0.133772,-0.3200475 -0.13378,-0.1323891 -0.321439,-0.1323891 -0.187659,0 -0.317635,0.1337715 -0.129968,0.1337715 -0.129968,0.32143 0,0.1876586 0.131359,0.3176353 0.13136,0.1299767 0.319018,0.1299767 z"
       id="path2437"
       style="display:inline;stroke-width:0.00927811"
       inkscape:label="Bus_filled" /><path
       style="display:inline;fill-opacity:1;stroke-width:0.00464042"
       d="M 5.3961334,2.4790342 4.9625646,2.106105 c 0,0 -0.0817,-0.20876 -0.1815,-0.45825 -0.0998,-0.24948 -0.18254,-0.45623 -0.18381,-0.45944 -0.002,-0.005 0.0649,-0.006 0.33092,-0.005 l 0.33322,10e-4 0.18516,0.46288 0.18517,0.46289 h 0.71832 0.71833 l 0.18516,-0.46289 0.18517,-0.46288 0.33322,-10e-4 c 0.26602,-9.5e-4 0.33275,-1e-5 0.33091,0.005 -10e-4,0.003 -0.084,0.20996 -0.1838,0.45944 -0.0998,0.24949 -0.1815,0.45767 -0.1815,0.45767 L 7.4383681,2.4770883 Z"
       id="path2485"
       inkscape:label="pantografo"
       sodipodi:nodetypes="ccscccccccccccsccc" /></g><g
     inkscape:label="posicion_train"
     inkscape:groupmode="layer"
     id="g4054"
     style="display:inline"
     transform="translate(8.0022038,-14.248171)"><path
       style="fill:#ffffff;fill-opacity:1;fill-rule:nonzero;stroke:none;stroke-width:0.018;stroke-dasharray:none"
       d="M 6.3499999,12.435417 3.175,8.9958333 1.5875,5.55625 2.1166667,2.6458333 4.4979167,0.52916667 6.35,0.26458333 8.2020833,0.52916667 10.583333,2.6458333 11.1125,5.55625 9.525,8.9958333 Z"
       id="path4046"
       inkscape:label="Fondo"
       sodipodi:nodetypes="ccccccccccc" /><path
       d="M 6.3499678,11.972167 C 7.7315575,10.767672 8.8201608,9.5530152 9.6157775,8.3281975 10.411394,7.1033791 10.809202,6.041429 10.809202,5.1423473 10.809202,3.8052658 10.387319,2.702038 9.5435529,1.8326637 8.6997864,0.9632893 7.635258,0.5286021 6.3499678,0.5286021 c -1.2852901,0 -2.3498185,0.4346872 -3.193585,1.3040616 -0.8437665,0.8693743 -1.2656497,1.9726021 -1.2656497,3.3096836 0,0.8990817 0.4021018,1.9610318 1.2063053,3.1858502 0.8041918,1.2248177 1.8885016,2.4394745 3.2529294,3.6439695 z m 0,0.727832 C 4.6936811,11.235278 3.446045,9.8692715 2.6070595,8.6019785 1.768074,7.3346954 1.3485812,6.181485 1.3485812,5.1423473 c 0,-1.4909282 0.4854565,-2.7207211 1.4563694,-3.6893786 C 3.7758517,0.4843229 4.9575241,0 6.3499678,0 7.7424115,0 8.924084,0.4843229 9.8949853,1.4529687 c 0.9709127,0.9686575 1.4563687,2.1984504 1.4563687,3.6893786 0,1.0391377 -0.419493,2.1923481 -1.258478,3.4596312 -0.8389853,1.267293 -2.0866214,2.6332995 -3.7429082,4.0980205 z"
       id="path4048"
       style="display:inline;mix-blend-mode:normal;fill:#000000;fill-opacity:1;fill-rule:nonzero;stroke-width:0.018;stroke-dasharray:none"
       inkscape:label="Bubble"
       sodipodi:nodetypes="cssssssccccssssscc" /><path
       d="M 3.5665847,6.7527631 V 3.2984682 q 0,-0.3482809 0.1745021,-0.5973602 0.1745023,-0.2490794 0.5231447,-0.4032347 0.3486332,-0.1541554 0.8724922,-0.2262367 0.5238498,-0.072091 1.2132762,-0.072091 0.708697,0 1.2307653,0.069233 0.5220687,0.069224 0.8668328,0.2228223 0.3447642,0.1535987 0.5152954,0.4003864 0.170522,0.2467785 0.170522,0.60648 v 3.4542955 q 0,0.4974436 -0.343651,0.841085 Q 8.4461228,7.9375 7.9486783,7.9375 L 8.5053634,8.4941847 V 8.6797459 H 8.0450406 L 7.302794,7.9375 H 5.3972059 L 4.6549594,8.6797459 H 4.1946366 V 8.4941847 L 4.7513216,7.9375 q -0.4974444,0 -0.841086,-0.3436509 Q 3.5665847,7.2502067 3.5665847,6.7527631 Z M 3.9876612,5.0684478 H 6.1658671 V 3.4483464 H 3.9876612 Z m 2.5992824,0 H 8.7123388 V 3.4483464 H 6.5869436 Z M 5.018122,6.9704457 q 0.1867492,0 0.3186001,-0.1297824 0.1318601,-0.1297727 0.1318601,-0.3183493 0,-0.1885863 -0.1315261,-0.3216441 -0.1315168,-0.1330473 -0.3190176,-0.1330473 -0.1875007,0 -0.3198897,0.132222 -0.1323889,0.1322219 -0.1323889,0.3208082 0,0.1885776 0.1320363,0.3191852 0.1320365,0.1306077 0.3203258,0.1306077 z m 2.6656671,0 q 0.1867399,0 0.3186,-0.1297824 Q 8.13424,6.7108906 8.13424,6.522314 8.13424,6.3337277 8.0027232,6.2006699 7.8712063,6.0676226 7.6837057,6.0676226 q -0.1875009,0 -0.3198991,0.132222 -0.132389,0.1322219 -0.132389,0.3208082 0,0.1885776 0.1320365,0.3191852 0.1320363,0.1306077 0.320335,0.1306077 z"
       id="path4052"
       style="stroke-width:0.0092781"
       inkscape:label="Train_filled" /></g><g
     inkscape:label="posicion_subway"
     inkscape:groupmode="layer"
     id="g302"
     style="display:inline"
     transform="translate(-3.8190801,-14.281336)"><path
       style="fill:#ffffff;fill-opacity:1;fill-rule:nonzero;stroke:none;stroke-width:0.018;stroke-dasharray:none"
       d="M 6.3499999,12.435417 3.175,8.9958333 1.5875,5.55625 2.1166667,2.6458333 4.4979167,0.52916667 6.35,0.26458333 8.2020833,0.52916667 10.583333,2.6458333 11.1125,5.55625 9.525,8.9958333 Z"
       id="path294"
       inkscape:label="Fondo"
       sodipodi:nodetypes="ccccccccccc" /><path
       d="M 6.3499678,11.972167 C 7.7315575,10.767672 8.8201608,9.5530152 9.6157775,8.3281975 10.411394,7.1033791 10.809202,6.041429 10.809202,5.1423473 10.809202,3.8052658 10.387319,2.702038 9.5435529,1.8326637 8.6997864,0.9632893 7.635258,0.5286021 6.3499678,0.5286021 c -1.2852901,0 -2.3498185,0.4346872 -3.193585,1.3040616 -0.8437665,0.8693743 -1.2656497,1.9726021 -1.2656497,3.3096836 0,0.8990817 0.4021018,1.9610318 1.2063053,3.1858502 0.8041918,1.2248177 1.8885016,2.4394745 3.2529294,3.6439695 z m 0,0.727832 C 4.6936811,11.235278 3.446045,9.8692715 2.6070595,8.6019785 1.768074,7.3346954 1.3485812,6.181485 1.3485812,5.1423473 c 0,-1.4909282 0.4854565,-2.7207211 1.4563694,-3.6893786 C 3.7758517,0.4843229 4.9575241,0 6.3499678,0 7.7424115,0 8.924084,0.4843229 9.8949853,1.4529687 c 0.9709127,0.9686575 1.4563687,2.1984504 1.4563687,3.6893786 0,1.0391377 -0.419493,2.1923481 -1.258478,3.4596312 -0.8389853,1.267293 -2.0866214,2.6332995 -3.7429082,4.0980205 z"
       id="path296"
       style="display:inline;mix-blend-mode:normal;fill:#000000;fill-opacity:1;fill-rule:nonzero;stroke-width:0.018;stroke-dasharray:none"
       inkscape:label="Bubble"
       sodipodi:nodetypes="cssssssccccssssscc" /><path
       d="M 3.438109,8.0566107 V 4.1375638 q 0,-0.5809054 0.3063605,-1.0218806 Q 4.0508299,2.6747003 4.5916709,2.4567171 4.9940601,2.3047087 5.460379,2.2702432 q 0.4663112,-0.034465 0.8881466,-0.034465 0.4218354,0 0.8905056,0.034465 0.4686702,0.034465 0.8710595,0.1864739 0.5437897,0.2179832 0.8463207,0.6589661 0.3025309,0.4409752 0.3025309,1.0218806 v 3.9190469 z m 1.8740912,-0.347596 0.5761874,-0.599762 h 0.9202762 l 0.5791361,0.599762 H 7.6729373 V 7.5558337 L 7.2410915,7.1033627 Q 7.598124,7.0915827 7.8452649,6.8576847 8.0924136,6.6237937 8.0924136,6.2184558 V 4.2100257 q 0,-0.4836895 -0.5169756,-0.6486493 -0.5169757,-0.1649675 -1.2269124,-0.1649675 -0.77945,0 -1.2616689,0.1649675 -0.4822191,0.1649598 -0.4822191,0.6486493 v 2.0084301 q 0,0.4300839 0.2727758,0.6545469 0.2727757,0.224471 0.5785463,0.23036 L 5.024114,7.5558337 v 0.153181 z M 4.8874236,5.55625 V 4.2100257 H 7.8125763 V 5.55625 Z m 2.4680322,0.9402819 q -0.1179028,0 -0.1947839,-0.077395 -0.076881,-0.077402 -0.076881,-0.1953049 0,-0.117903 0.077394,-0.1947914 0.077402,-0.076882 0.1953048,-0.076882 0.1179029,0 0.1947917,0.077402 0.076881,0.077402 0.076881,0.1953049 0,0.1179029 -0.077402,0.1947839 -0.077402,0.076882 -0.1953046,0.076882 z m -2.0148944,0 q -0.1179028,0 -0.1947917,-0.077395 -0.076881,-0.077402 -0.076881,-0.1953049 0,-0.117903 0.077402,-0.1947914 0.077402,-0.076882 0.1953048,-0.076882 0.1179028,0 0.1947839,0.077402 0.076881,0.077402 0.076881,0.1953049 0,0.1179029 -0.077394,0.1947839 -0.077402,0.076882 -0.195305,0.076882 z"
       id="path3461"
       style="stroke-width:0.00765903"
       inkscape:label="Subway_filled" /></g><g
     inkscape:label="posicion_tram"
     inkscape:groupmode="layer"
     id="g368"
     style="display:inline"
     transform="translate(-14.550436,-13.87174)"><path
       style="fill:#ffffff;fill-opacity:1;fill-rule:nonzero;stroke:none;stroke-width:0.018;stroke-dasharray:none"
       d="M 6.3499999,12.435417 3.175,8.9958333 1.5875,5.55625 2.1166667,2.6458333 4.4979167,0.52916667 6.35,0.26458333 8.2020833,0.52916667 10.583333,2.6458333 11.1125,5.55625 9.525,8.9958333 Z"
       id="path362"
       inkscape:label="Fondo"
       sodipodi:nodetypes="ccccccccccc" /><path
       d="M 6.3499678,11.972167 C 7.7315575,10.767672 8.8201608,9.5530152 9.6157775,8.3281975 10.411394,7.1033791 10.809202,6.041429 10.809202,5.1423473 10.809202,3.8052658 10.387319,2.702038 9.5435529,1.8326637 8.6997864,0.9632893 7.635258,0.5286021 6.3499678,0.5286021 c -1.2852901,0 -2.3498185,0.4346872 -3.193585,1.3040616 -0.8437665,0.8693743 -1.2656497,1.9726021 -1.2656497,3.3096836 0,0.8990817 0.4021018,1.9610318 1.2063053,3.1858502 0.8041918,1.2248177 1.8885016,2.4394745 3.2529294,3.6439695 z m 0,0.727832 C 4.6936811,11.235278 3.446045,9.8692715 2.6070595,8.6019785 1.768074,7.3346954 1.3485812,6.181485 1.3485812,5.1423473 c 0,-1.4909282 0.4854565,-2.7207211 1.4563694,-3.6893786 C 3.7758517,0.4843229 4.9575241,0 6.3499678,0 7.7424115,0 8.924084,0.4843229 9.8949853,1.4529687 c 0.9709127,0.9686575 1.4563687,2.1984504 1.4563687,3.6893786 0,1.0391377 -0.419493,2.1923481 -1.258478,3.4596312 -0.8389853,1.267293 -2.0866214,2.6332995 -3.7429082,4.0980205 z"
       id="path364"
       style="display:inline;mix-blend-mode:normal;fill:#000000;fill-opacity:1;fill-rule:nonzero;stroke-width:0.018;stroke-dasharray:none"
       inkscape:label="Bubble"
       sodipodi:nodetypes="cssssssccccssssscc" /><path
       d="M 3.8591785,7.0125949 V 3.8337814 q 0,-0.668101 0.5731763,-0.8787635 Q 5.005522,2.7443554 6.1525046,2.730924 L 6.4120721,2.1951583 H 4.7031096 V 1.8595078 H 8.0021151 V 2.1951583 H 6.8020634 L 6.5527191,2.730924 q 1.0056875,0.013431 1.6495023,0.2231298 0.6438238,0.2097067 0.6438238,0.8797276 v 3.1788135 q 0,0.4456197 -0.3078486,0.75346 Q 8.230356,8.0739035 7.7847365,8.0739035 L 8.2834251,8.5725918 V 8.7388216 H 7.8710593 L 7.2061421,8.0739035 H 5.4990816 L 4.8341644,8.7388216 H 4.4217985 V 8.5725918 L 4.9204872,8.0739035 q -0.4456195,0 -0.7534601,-0.3078486 Q 3.8591785,7.4582146 3.8591785,7.0125949 Z M 7.8167031,5.8285346 H 4.2363866 8.463726 Z M 6.3711542,7.1551705 q 0.1687816,0 0.2857821,-0.1185964 0.1170005,-0.1185967 0.1170005,-0.2873861 0,-0.168781 -0.1170005,-0.2857816 -0.1170005,-0.1170005 -0.2857821,-0.1170005 -0.1687886,0 -0.2873851,0.1170005 -0.1185966,0.1170006 -0.1185966,0.2857816 0,0.1687894 0.1185966,0.2873861 0.1185965,0.1185964 0.2873851,0.1185964 z M 6.360924,3.6196115 H 8.4343124 4.2389476 Z M 4.2363876,5.4513351 H 8.463727 V 3.996811 H 4.2363876 Z M 4.8834024,7.673041 h 2.9333017 q 0.2755579,0 0.4612859,-0.1924437 Q 8.463727,7.2881535 8.463727,7.0125949 V 5.8285346 H 4.2363876 v 1.1840603 q 0,0.2755586 0.188288,0.4680024 0.188288,0.1924437 0.4587268,0.1924437 z M 6.360924,3.108132 q -1.0031274,0 -1.5241906,0.1269078 Q 4.3156623,3.3619559 4.2389476,3.6196115 H 8.4343124 Q 8.3543967,3.4022332 7.8499569,3.2551785 7.3455091,3.108132 6.360924,3.108132 Z"
       id="path370"
       style="display:none;stroke-width:0.00831149"
       inkscape:label="Tram_outline" /><path
       d="M 3.8592125,7.0125792 V 3.8337654 q 0,-0.668101 0.573176,-0.8787636 0.573167,-0.2106626 1.72015,-0.2240939 L 6.4121055,2.1951421 H 4.7031425 V 1.8594917 h 3.299006 v 0.3356504 h -1.200052 l -0.249344,0.5363808 q 1.005688,0.012816 1.649503,0.2222488 0.643824,0.2094408 0.643824,0.8799937 v 3.1788138 q 0,0.4456193 -0.307849,0.7534597 -0.307841,0.3078485 -0.75346,0.3078485 l 0.498688,0.4986883 V 8.7388055 H 7.8710935 L 7.2061755,8.0738874 h -1.70706 L 4.8341985,8.7388055 H 4.4218325 V 8.5725757 l 0.498689,-0.4986883 q -0.44562,0 -0.75346,-0.3078485 -0.307849,-0.3078404 -0.307849,-0.7534597 z m 2.513289,0.1425752 q 0.168599,0 0.285034,-0.119353 0.116436,-0.1193444 0.116436,-0.2879426 0,-0.1685982 -0.117193,-0.2850336 -0.117183,-0.1164354 -0.285781,-0.1164354 -0.168598,0 -0.287195,0.1171917 -0.118596,0.1171835 -0.118596,0.2857817 0,0.1685982 0.119353,0.2871946 0.119344,0.1185966 0.287942,0.1185966 z M 4.2364205,5.4513191 h 4.227339 V 3.9967949 h -4.227339 z"
       id="path3934"
       style="stroke-width:0.00831149"
       inkscape:label="Tram_filled" /></g><g
     inkscape:label="posicion_monorail"
     inkscape:groupmode="layer"
     id="g2913"
     style="display:inline"
     transform="translate(-6.3499676,28.140324)"><path
       style="fill:#ffffff;fill-opacity:1;fill-rule:nonzero;stroke:none;stroke-width:0.018;stroke-dasharray:none"
       d="M 6.3499999,12.435417 3.175,8.9958333 1.5875,5.55625 2.1166667,2.6458333 4.4979167,0.52916667 6.35,0.26458333 8.2020833,0.52916667 10.583333,2.6458333 11.1125,5.55625 9.525,8.9958333 Z"
       id="path2905"
       inkscape:label="Fondo"
       sodipodi:nodetypes="ccccccccccc" /><path
       d="M 6.3499678,11.972167 C 7.7315575,10.767672 8.8201608,9.5530152 9.6157775,8.3281975 10.411394,7.1033791 10.809202,6.041429 10.809202,5.1423473 10.809202,3.8052658 10.387319,2.702038 9.5435529,1.8326637 8.6997864,0.9632893 7.635258,0.5286021 6.3499678,0.5286021 c -1.2852901,0 -2.3498185,0.4346872 -3.193585,1.3040616 -0.8437665,0.8693743 -1.2656497,1.9726021 -1.2656497,3.3096836 0,0.8990817 0.4021018,1.9610318 1.2063053,3.1858502 0.8041918,1.2248177 1.8885016,2.4394745 3.2529294,3.6439695 z m 0,0.727832 C 4.6936811,11.235278 3.446045,9.8692715 2.6070595,8.6019785 1.768074,7.3346954 1.3485812,6.181485 1.3485812,5.1423473 c 0,-1.4909282 0.4854565,-2.7207211 1.4563694,-3.6893786 C 3.7758517,0.4843229 4.9575241,0 6.3499678,0 7.7424115,0 8.924084,0.4843229 9.8949853,1.4529687 c 0.9709127,0.9686575 1.4563687,2.1984504 1.4563687,3.6893786 0,1.0391377 -0.419493,2.1923481 -1.258478,3.4596312 -0.8389853,1.267293 -2.0866214,2.6332995 -3.7429082,4.0980205 z"
       id="path2907"
       style="display:inline;mix-blend-mode:normal;fill:#000000;fill-opacity:1;fill-rule:nonzero;stroke-width:0.018;stroke-dasharray:none"
       inkscape:label="Bubble"
       sodipodi:nodetypes="cssssssccccssssscc" /><path
       d="M 4.395218,8.6936386 V 8.4473458 L 4.9007804,8.1103041 q -0.4517623,0 -0.7638461,-0.3120921 Q 3.8248422,7.4861281 3.8248422,7.0343658 V 3.8972921 q 0,-0.6183366 0.6001955,-0.8989828 0.6001867,-0.2806546 1.9276087,-0.2806546 1.3586909,0 1.9432472,0.2727931 0.5845563,0.2727928 0.5845563,0.9068443 v 3.1370737 q 0,0.4517623 -0.312092,0.7638462 Q 8.2562747,8.1103041 7.8045124,8.1103041 L 8.3100748,8.4473458 V 8.6936386 Z M 4.2072494,5.5047279 H 8.4980428 V 4.0334064 H 4.2072494 Z m 2.1460791,1.7273299 q 0.1704251,0 0.2906652,-0.1193045 0.1202313,-0.1192955 0.1202313,-0.2897206 0,-0.1704256 -0.1214956,-0.2906562 -0.1214866,-0.1202309 -0.2919116,-0.1202309 -0.170425,0 -0.2884658,0.1214863 -0.1180402,0.1214948 -0.1180402,0.2919199 0,0.170425 0.1192962,0.2884658 0.1192955,0.1180402 0.2897205,0.1180402 z"
       id="path2915"
       style="display:inline;stroke-width:0.00842609"
       inkscape:label="Monorail_filled" /></g></svg>
