<?xml version="1.0" encoding="UTF-8" standalone="no"?>
<!-- Created with Inkscape (http://www.inkscape.org/) -->

<svg
   width="48.000359"
   height="24.000179"
   viewBox="0 0 12.700095 6.3500474"
   version="1.1"
   id="svg5"
   inkscape:version="1.2.2 (732a01da63, 2022-12-09)"
   sodipodi:docname="banderas.svg"
   xml:space="preserve"
   xmlns:inkscape="http://www.inkscape.org/namespaces/inkscape"
   xmlns:sodipodi="http://sodipodi.sourceforge.net/DTD/sodipodi-0.dtd"
   xmlns="http://www.w3.org/2000/svg"
   xmlns:svg="http://www.w3.org/2000/svg"><sodipodi:namedview
     id="namedview7"
     pagecolor="#505050"
     bordercolor="#eeeeee"
     borderopacity="1"
     inkscape:showpageshadow="0"
     inkscape:pageopacity="0"
     inkscape:pagecheckerboard="0"
     inkscape:deskcolor="#505050"
     inkscape:document-units="mm"
     showgrid="false"
     inkscape:zoom="8"
     inkscape:cx="-6.25"
     inkscape:cy="10"
     inkscape:window-width="1920"
     inkscape:window-height="1009"
     inkscape:window-x="-8"
     inkscape:window-y="-8"
     inkscape:window-maximized="1"
     inkscape:current-layer="layer4" /><defs
     id="defs2"><clipPath
       clipPathUnits="userSpaceOnUse"
       id="clipPath6689"><path
         d="m -5.0709999e-8,-7.6729168 v 6.3500476 H 12.700095 v -6.3500476 z"
         fill="#012169"
         id="path6691"
         style="display:inline;stroke-width:0.211668" /></clipPath></defs><g
     inkscape:groupmode="layer"
     id="layer4"
     inkscape:label="en"
     transform="translate(5.0709999e-8,7.6729168)"
     clip-path="url(#clipPath6689)"><path
       d="M 0,0 V 30 H 60 V 0 Z"
       fill="#012169"
       id="path324"
       style="display:inline"
       transform="matrix(0.21166825,0,0,0.21166825,-4.755071e-5,-7.6730117)" /><path
       d="M 0,0 60,30 M 60,0 0,30"
       stroke="#ffffff"
       stroke-width="6"
       id="path326"
       style="display:inline"
       transform="matrix(0.21166825,0,0,0.21166825,-4.755071e-5,-7.6730117)" /><path
       d="M 0,0 60,30 M 60,0 0,30"
       clip-path="url(#t)"
       stroke="#c8102e"
       stroke-width="4"
       id="path328"
       sodipodi:nodetypes="cccc"
       style="display:inline"
       transform="matrix(0.21166825,0,0,0.21166825,-4.755071e-5,-7.6730117)" /><path
       d="M 30,0 V 30 M 0,15 h 60"
       stroke="#ffffff"
       stroke-width="10"
       id="path330"
       style="display:inline"
       transform="matrix(0.21166825,0,0,0.21166825,-4.755071e-5,-7.6730117)" /><path
       d="M 30,0 V 30 M 0,15 h 60"
       stroke="#c8102e"
       stroke-width="6"
       id="path332"
       style="display:inline"
       transform="matrix(0.21166825,0,0,0.21166825,-4.755071e-5,-7.6730117)" /></g></svg>
